<?xml version="1.0" encoding="utf-8"?>
<!-- Generator: Adobe Illustrator 24.0.2, SVG Export Plug-In . SVG Version: 6.00 Build 0)  -->
<svg version="1.1" id="Capa_1" xmlns="http://www.w3.org/2000/svg" xmlns:xlink="http://www.w3.org/1999/xlink" x="0px" y="0px"
	 viewBox="0 0 651 265.8" style="enable-background:new 0 0 651 265.8;" xml:space="preserve">
<style type="text/css">
	.st0{fill:#D6FA4A;}
</style>
<polygon class="st0" points="488.4,139.8 488.4,139.9 488.6,139.7 "/>
<polygon class="st0" points="475.4,150.5 474.5,140.6 465.2,125.9 462.7,125.1 452.1,132.8 454.8,131.9 462.8,125.7 463.9,126.1 
	463.9,126.2 475.8,156.3 477.5,157.9 477.5,157.9 475.4,150.5 "/>
<polygon class="st0" points="475.9,150 488,139.5 479.7,135.8 479.7,135.7 469.6,131.9 475.1,140.4 "/>
<polygon class="st0" points="462.8,126.3 456.8,130.9 462.9,127.6 472.7,156.9 473,157.3 475.2,156.2 463.5,126.5 "/>
<polygon class="st0" points="502.3,124.9 488.4,139.8 476,150.6 477.9,157.4 482,153.4 486.4,145.4 486.5,145.3 496.6,135.1 
	500,129.5 "/>
<polygon class="st0" points="460.1,129.7 462.7,148 467.7,150.2 471.7,155.6 462.6,128.3 "/>
<polygon class="st0" points="481.4,104.8 480.9,106.6 481.8,136.2 488.3,139.1 "/>
<polygon class="st0" points="483,152.8 491.8,151.1 493.5,143.5 496.5,136.7 496.4,136 486.9,145.7 "/>
<polygon class="st0" points="258.7,190 258.7,189.9 258.4,189.7 "/>
<polygon class="st0" points="288.9,206.2 286.7,186 299.7,153.1 304.3,150.5 328.5,161.7 322.7,160.9 304.5,151.6 302.4,152.9 
	302.3,153.1 290.4,218 287.5,221.7 287.5,221.7 288.9,206.2 "/>
<polygon class="st0" points="287.7,205.3 259.5,189.1 274.6,178.4 274.6,178.3 293.2,166.7 285.6,185.9 "/>
<polygon class="st0" points="304.5,152.8 318.3,159.8 304.9,155.5 296.8,217.9 296.4,218.8 291.5,217.4 303.3,153.5 "/>
<polygon class="st0" points="225.2,165.5 258.7,189.9 287.8,206.5 286.5,221 276.7,214.6 264.8,200.2 264.7,200.1 240.6,183.6 
	231.6,173.8 "/>
<polygon class="st0" points="311.5,158.7 313.3,196.2 304.2,202.6 298.3,214.8 305.8,156.9 "/>
<polygon class="st0" points="259.2,117.2 260.9,120.6 270.4,180 258.8,188.3 "/>
<polygon class="st0" points="274.6,213.6 256.3,213.8 250,199.1 241.3,186.7 241.2,185.3 264.1,200.9 "/>
</svg>
