<?xml version="1.0" encoding="utf-8"?>
<!-- Generator: Adobe Illustrator 24.0.2, SVG Export Plug-In . SVG Version: 6.00 Build 0)  -->
<svg version="1.1" id="Capa_1" xmlns="http://www.w3.org/2000/svg" xmlns:xlink="http://www.w3.org/1999/xlink" x="0px" y="0px"
	 viewBox="0 0 499 301.4" style="enable-background:new 0 0 499 301.4;" xml:space="preserve">
<style type="text/css">
	.st0{clip-path:url(#SVGID_2_);}
	.st1{clip-path:url(#SVGID_4_);fill:#D6FA47;}
</style>
<g>
	<defs>
		<rect id="SVGID_1_" width="499" height="301.4"/>
	</defs>
	<clipPath id="SVGID_2_">
		<use xlink:href="#SVGID_1_"  style="overflow:visible;"/>
	</clipPath>
	<g class="st0">
		<defs>
			<rect id="SVGID_3_" width="499" height="301.4"/>
		</defs>
		<clipPath id="SVGID_4_">
			<use xlink:href="#SVGID_3_"  style="overflow:visible;"/>
		</clipPath>
		<path class="st1" d="M184.2,261.4c5.8,4.9,10.9,7.3,16.3,10.3c7.3,4.2,13.3,4.2,21.8,4.2c12.7,0,24.8-0.6,36.9,1.2
			c15.1,3,27.2,7.9,41.1,13.3c12.1,4.8,24.2,3,36.3,1.2c17.5-2.4,36.3-1.8,53.2,3.6c14.5,3.6,31.4,8.5,46.5,3
			c5.4-2.4,9.1-6,15.7-7.3c6-1.2,12.1-1.2,18.7-2.4c16.3-1.8,38.7-10.9,23-28.4c-3.6-4.2-10.3-7.3-13.3-12.7
			c-3.6-6-1.2-12.7-4.8-19.3c-6.6-13.3-18.1-7.9-29.6-10.3c-6.7-1.8-10.3-7.3-16.3-10.3c-5.4-2.4-10.3,0-15.1-1.8
			c-6-2.4-9.1-9.1-14.5-12.1c-4.2-1.8-7.3-0.6-11.5-1.8c-7.7-1.5-11.6-13.4-27.8-19.3c-3.6-1.2-7.3,0-10.9-0.6
			c-7.9-1.2-9.1-4.2-15.7-7.3c-14.5-6.7-29.6-1.2-39.3,10.3c-9.7,12.1-10.3,16.3-25.4,18.1c-15.1,1.8-20.6,7.9-27.8,19.9
			c-8.5,13.9-15.7,7.9-27.8,15.7c-8.5,5.4-5.4,14.5-14.5,19.3C195,250.5,174.5,252.9,184.2,261.4"/>
	</g>
</g>
</svg>
