<?xml version="1.0" encoding="utf-8"?>
<!-- Generator: Adobe Illustrator 24.0.2, SVG Export Plug-In . SVG Version: 6.00 Build 0)  -->
<svg version="1.1" id="Capa_1" xmlns="http://www.w3.org/2000/svg" xmlns:xlink="http://www.w3.org/1999/xlink" x="0px" y="0px"
	 viewBox="0 0 324.3 393.7" style="enable-background:new 0 0 324.3 393.7;" xml:space="preserve">
<style type="text/css">
	.st0{clip-path:url(#SVGID_2_);fill:#D6FA4A;}
</style>
<g>
	<defs>
		<rect id="SVGID_1_" x="-0.2" width="324.6" height="393.7"/>
	</defs>
	<clipPath id="SVGID_2_">
		<use xlink:href="#SVGID_1_"  style="overflow:visible;"/>
	</clipPath>
	<polygon class="st0" points="111.6,275.2 111.6,275.3 112.2,275 	"/>
	<polygon class="st0" points="-0.2,214.6 9.5,214.3 41.7,201.6 45,204.1 45.1,204.5 53.6,317.6 57.7,324.5 57.8,324.5 58.2,297.8 
		58.2,297.7 65.4,263.6 49.5,205 42.2,199.8 	"/>
	<polygon class="st0" points="60.3,296.4 110.5,273.8 87.1,252.7 87.1,252.6 58,229.4 67.2,263.5 	"/>
	<polygon class="st0" points="41.4,203.6 17.1,213.2 40.4,208.2 42.8,316.3 43.4,317.9 51.7,316.4 43.3,205 	"/>
	<polygon class="st0" points="172.1,239.5 111.6,275.2 60,298.5 59.6,323.5 77,314.3 99.6,291.7 99.7,291.7 143.2,267.7 
		159.9,252.5 	"/>
	<polygon class="st0" points="28.8,212.4 19,276.3 33.2,288.9 40.9,310.9 38.7,210.3 	"/>
	<polygon class="st0" points="123.8,150.7 120.3,156.3 93.8,256.3 111.8,272.6 	"/>
	<polygon class="st0" points="80.8,313 111.5,316.6 124.7,292.6 141.5,272.9 141.8,270.5 100.7,293.2 	"/>
	<polygon class="st0" points="166.7,344 166.7,344 166.4,343.8 	"/>
	<polygon class="st0" points="196.1,358.4 193.1,338.7 203.7,305.7 208,302.9 231.5,312.7 226,312.2 208.2,304 206.3,305.3 
		206.3,305.5 198.1,369.9 195.6,373.7 195.6,373.7 196.1,358.5 	"/>
	<polygon class="st0" points="194.9,357.6 167.3,343.2 181.2,331.8 181.1,331.8 198.2,319.4 192,338.6 	"/>
	<polygon class="st0" points="208.3,305.2 221.8,311.4 208.8,307.8 204.2,369.5 203.8,370.4 199.2,369.3 207.2,305.9 	"/>
	<polygon class="st0" points="133.7,321.7 166.7,344 195.1,358.8 194.6,373.1 185,367.3 173,353.7 172.9,353.7 149.1,338.7 
		140.2,329.6 	"/>
	<polygon class="st0" points="215.2,310.6 218.8,347.3 210.4,354.1 205.4,366.4 209.7,309.1 	"/>
	<polygon class="st0" points="163.5,272.4 165.3,275.8 177.3,333.7 166.6,342.4 	"/>
	<polygon class="st0" points="182.9,366.5 165.5,367.6 158.8,353.5 149.9,341.7 149.8,340.3 172.3,354.5 	"/>
	<polygon class="st0" points="165.6,170.6 165.6,170.6 165.5,170.4 	"/>
	<polygon class="st0" points="183.2,185 184.4,171.6 197,151.8 200.4,150.7 214.7,161 211,159.8 200.3,151.4 198.8,152 198.7,152.1 
		182.7,192.9 180.4,194.9 180.4,194.9 183.2,185 	"/>
	<polygon class="st0" points="182.6,184.2 166.2,170.1 177.4,165 177.4,165 191,159.8 183.7,171.3 	"/>
	<polygon class="st0" points="200.2,152.2 208.3,158.5 200.1,154 186.9,193.6 186.5,194.1 183.6,192.6 199.3,152.5 	"/>
	<polygon class="st0" points="146.9,150.4 165.6,170.6 182.5,185.1 179.8,194.3 174.3,188.9 168.3,178 168.3,178 154.6,164.2 
		150,156.6 	"/>
	<polygon class="st0" points="204,156.9 200.4,181.6 193.6,184.6 188.2,191.8 200.5,155 	"/>
	<polygon class="st0" points="175.2,123.2 175.8,125.7 174.5,165.6 165.9,169.5 	"/>
	<polygon class="st0" points="173,188 161,185.8 158.8,175.5 154.7,166.3 154.8,165.3 167.7,178.4 	"/>
	<polygon class="st0" points="158.1,35 158.1,35.1 158.3,34.9 	"/>
	<polygon class="st0" points="145.1,45.7 144.2,35.8 134.9,21.1 132.4,20.3 121.8,28 124.5,27.1 132.5,20.9 133.6,21.3 133.6,21.4 
		145.5,51.5 147.2,53.1 147.2,53 145.1,45.7 	"/>
	<polygon class="st0" points="145.6,45.2 157.7,34.7 149.4,31 149.4,30.9 139.3,27.1 144.8,35.6 	"/>
	<polygon class="st0" points="132.5,21.5 126.5,26.1 132.6,22.8 142.4,52.1 142.7,52.5 144.9,51.4 133.2,21.7 	"/>
	<polygon class="st0" points="172,20.1 158.1,35 145.7,45.8 147.7,52.6 151.7,48.6 156.1,40.6 156.2,40.5 166.3,30.3 169.7,24.7 	
		"/>
	<polygon class="st0" points="129.8,24.9 132.4,43.2 137.4,45.4 141.4,50.8 132.3,23.5 	"/>
	<polygon class="st0" points="151.1,0 150.6,1.8 151.5,31.4 158,34.3 	"/>
	<polygon class="st0" points="152.7,48 161.5,46.3 163.2,38.7 166.2,31.9 166.1,31.2 156.6,40.9 	"/>
</g>
</svg>
