<?xml version="1.0" encoding="utf-8"?>
<!-- Generator: Adobe Illustrator 24.0.2, SVG Export Plug-In . SVG Version: 6.00 Build 0)  -->
<svg version="1.1" id="Capa_1" xmlns="http://www.w3.org/2000/svg" xmlns:xlink="http://www.w3.org/1999/xlink" x="0px" y="0px"
	 viewBox="0 0 153.9 138.4" style="enable-background:new 0 0 153.9 138.4;" xml:space="preserve">
<style type="text/css">
	.st0{clip-path:url(#SVGID_2_);}
	.st1{fill:#0048D8;}
	.st2{clip-path:url(#SVGID_2_);fill-rule:evenodd;clip-rule:evenodd;fill:#FFFFFF;}
</style>
<g>
	<defs>
		<path id="SVGID_1_" d="M41.5,66.5c-0.8-1.8-8.8-4-12.2-4.9c0,0,0,0,0,0S15,63,6.7,62.1c-2.1-0.2-4.1,0.3-4.5,0.8
			c-1.2,1.7-1.1,5.3-1.1,5.3L1,106.6l-0.7,22.5c0,0-0.3,1.9,0,2.7c0.3,0.8,1.9,1.7,1.9,1.7l8.2,4.4c0,0,0.6,0.6,1.9,0.5
			c0.5,0,13.2-0.8,29.2-1.7l-0.3-1.2C41.3,135.4,43.1,70.2,41.5,66.5z M82.1,65c-0.8-2-10-4.2-12.7-4.8l-2.7,0.1v-7c0,0,0-2-0.7-3.1
			c-0.7-1.1-4.1-0.8-4.1-0.8l-13.1,0c0,0-1.8,0.1-2.9,1.8c-1.1,1.7-0.7,4.4-0.7,4.4l0,5.3l-12.9,0.4c0,0,9.6,2.4,11.1,3.7
			s1.3,4.7,1.3,4.7L44.1,134l0.4,2.5c12.2-0.7,26-1.6,37.6-2.2l-0.1-0.2C81.9,134,83.7,68.8,82.1,65z M63.7,60.4l-15.3,0.5
			c0-2.1,0.1-5.9,0.1-6.6c0.1-2.4,3-1.8,3-1.8s9.3,0,10.2-0.1c2-0.2,2,2.7,2,2.7L63.7,60.4z M111.3,63.4c-0.8-0.9-3.1-1.9-3.1-1.9
			l-10-1.6c0,0-0.5-0.3-1.6-0.3c-0.9,0-19.3,0.3-23.4,0.3c3.1,0.8,10.4,2.8,11.6,3.8c0.7,0.6,0.5,4.6,0.5,4.6l-0.6,64.1l0.2,1.5
			c13.3-0.8,23.1-1.4,23.1-1.4s1.6,0,1.9-0.4c0.3-0.4,0.7-1.4,0.7-1.4l0.8-63.7C111.3,67.1,112.2,64.3,111.3,63.4z"/>
	</defs>
	<clipPath id="SVGID_2_">
		<use xlink:href="#SVGID_1_"  style="overflow:visible;"/>
	</clipPath>
	<g class="st0">
		<g>
			<path class="st1" d="M41.5,66.5c-0.8-1.8-8.8-4-12.2-4.9c0,0,0,0,0,0S15,63,6.7,62.1c-2.1-0.2-4.1,0.3-4.5,0.8
				c-1.2,1.7-1.1,5.3-1.1,5.3L1,106.6l-0.7,22.5c0,0-0.3,1.9,0,2.7s1.9,1.7,1.9,1.7l8.2,4.4c0,0,0.6,0.6,1.9,0.5
				c0.5,0,13.2-0.8,29.2-1.7l-0.3-1.2C41.3,135.4,43.1,70.2,41.5,66.5z"/>
			<path class="st1" d="M82.1,65c-0.8-2-10-4.2-12.7-4.8l-2.7,0.1v-7c0,0,0-2-0.7-3.1c-0.7-1.1-4.1-0.8-4.1-0.8l-13.1,0
				c0,0-1.8,0.1-2.9,1.8c-1.1,1.7-0.7,4.4-0.7,4.4l0,5.3l-12.9,0.4c0,0,9.6,2.4,11.1,3.7c1.5,1.4,1.3,4.7,1.3,4.7L44.1,134l0.4,2.5
				c12.2-0.7,26-1.6,37.6-2.2l-0.1-0.2C81.9,134,83.7,68.8,82.1,65z M63.7,60.4l-15.3,0.5c0-2.1,0.1-5.9,0.1-6.6
				c0.1-2.4,3-1.8,3-1.8s9.3,0,10.2-0.1c2-0.2,2,2.7,2,2.7L63.7,60.4z"/>
			<path class="st1" d="M111.3,63.4c-0.8-0.9-3.1-1.9-3.1-1.9l-10-1.6c0,0-0.5-0.3-1.6-0.3c-0.9,0-19.3,0.3-23.4,0.3
				c3.1,0.8,10.4,2.8,11.6,3.8c0.7,0.6,0.5,4.6,0.5,4.6l-0.6,64.1l0.2,1.5c13.3-0.8,23.1-1.4,23.1-1.4s1.6,0,1.9-0.4
				c0.3-0.4,0.7-1.4,0.7-1.4l0.8-63.7C111.3,67.1,112.2,64.3,111.3,63.4z"/>
		</g>
	</g>
	<path class="st2" d="M87.7,125.9c0.8,0.6,1.4,0.9,2.1,1.3c0.9,0.5,1.7,0.5,2.8,0.5c1.6,0,3.2-0.1,4.8,0.2c2,0.4,3.5,1,5.3,1.7
		c1.6,0.6,3.1,0.4,4.7,0.2c2.3-0.3,4.7-0.2,6.9,0.5c1.9,0.5,4.1,1.1,6,0.4c0.7-0.3,1.2-0.8,2-0.9c0.8-0.2,1.6-0.2,2.4-0.3
		c2.1-0.2,5-1.4,3-3.7c-0.5-0.5-1.3-0.9-1.7-1.6c-0.5-0.8-0.2-1.6-0.6-2.5c-0.9-1.7-2.4-1-3.8-1.3c-0.9-0.2-1.3-0.9-2.1-1.3
		c-0.7-0.3-1.3,0-2-0.2c-0.8-0.3-1.2-1.2-1.9-1.6c-0.5-0.2-0.9-0.1-1.5-0.2c-1-0.2-1.5-1.7-3.6-2.5c-0.5-0.2-0.9,0-1.4-0.1
		c-1-0.2-1.2-0.5-2-0.9c-1.9-0.9-3.8-0.2-5.1,1.3c-1.3,1.6-1.3,2.1-3.3,2.4c-2,0.2-2.7,1-3.6,2.6c-1.1,1.8-2,1-3.6,2
		c-1.1,0.7-0.7,1.9-1.9,2.5C89.1,124.5,86.5,124.8,87.7,125.9"/>
	<path class="st2" d="M38.5,103.9c0.8,0.6,1.4,0.9,2.1,1.3c0.9,0.5,1.7,0.5,2.8,0.5c1.6,0,3.2-0.1,4.8,0.2c2,0.4,3.5,1,5.3,1.7
		c1.6,0.6,3.1,0.4,4.7,0.2c2.3-0.3,4.7-0.2,6.9,0.5c1.9,0.5,4.1,1.1,6,0.4c0.7-0.3,1.2-0.8,2-0.9c0.8-0.2,1.6-0.2,2.4-0.3
		c2.1-0.2,5-1.4,3-3.7c-0.5-0.5-1.3-0.9-1.7-1.6c-0.5-0.8-0.2-1.6-0.6-2.5c-0.9-1.7-2.4-1-3.8-1.3c-0.9-0.2-1.3-0.9-2.1-1.3
		c-0.7-0.3-1.3,0-2-0.2c-0.8-0.3-1.2-1.2-1.9-1.6c-0.5-0.2-0.9-0.1-1.5-0.2c-1-0.2-1.5-1.7-3.6-2.5c-0.5-0.2-0.9,0-1.4-0.1
		c-1-0.2-1.2-0.5-2-0.9c-1.9-0.9-3.8-0.2-5.1,1.3c-1.3,1.6-1.3,2.1-3.3,2.4c-2,0.2-2.7,1-3.6,2.6c-1.1,1.8-2,1-3.6,2
		c-1.1,0.7-0.7,1.9-1.9,2.5C39.9,102.5,37.2,102.8,38.5,103.9"/>
	<path class="st2" d="M-10.8,114.4c0.6,0.5,1.2,0.8,1.8,1.1c0.8,0.5,1.4,0.5,2.4,0.5c1.4,0,2.7-0.1,4,0.1c1.6,0.3,2.9,0.9,4.5,1.4
		c1.3,0.5,2.6,0.3,3.9,0.1c1.9-0.3,3.9-0.2,5.8,0.4c1.6,0.4,3.4,0.9,5,0.3c0.6-0.3,1-0.7,1.7-0.8c0.7-0.1,1.3-0.1,2-0.3
		c1.8-0.2,4.2-1.2,2.5-3.1c-0.4-0.5-1.1-0.8-1.4-1.4c-0.4-0.7-0.1-1.4-0.5-2.1c-0.7-1.4-2-0.9-3.2-1.1c-0.7-0.2-1.1-0.8-1.8-1.1
		c-0.6-0.3-1.1,0-1.6-0.2c-0.7-0.3-1-1-1.6-1.3c-0.5-0.2-0.8-0.1-1.2-0.2c-0.8-0.2-1.3-1.4-3-2.1c-0.4-0.1-0.8,0-1.2-0.1
		c-0.9-0.1-1-0.5-1.7-0.8c-1.6-0.7-3.2-0.1-4.3,1.1c-1,1.3-1.1,1.8-2.8,2c-1.6,0.2-2.2,0.9-3,2.2c-0.9,1.5-1.7,0.9-3,1.7
		c-0.9,0.6-0.6,1.6-1.6,2.1C-9.6,113.2-11.8,113.5-10.8,114.4"/>
	<path class="st2" d="M132,86.7c-0.6,0.5-1.2,0.8-1.8,1.1c-0.8,0.5-1.4,0.5-2.4,0.5c-1.4,0-2.7-0.1-4,0.1c-1.6,0.3-2.9,0.9-4.5,1.4
		c-1.3,0.5-2.6,0.3-3.9,0.1c-1.9-0.3-3.9-0.2-5.8,0.4c-1.6,0.4-3.4,0.9-5,0.3c-0.6-0.3-1-0.7-1.7-0.8c-0.7-0.1-1.3-0.1-2-0.3
		c-1.8-0.2-4.2-1.2-2.5-3.1c0.4-0.5,1.1-0.8,1.4-1.4c0.4-0.7,0.1-1.4,0.5-2.1c0.7-1.4,2-0.9,3.2-1.1c0.7-0.2,1.1-0.8,1.8-1.1
		c0.6-0.3,1.1,0,1.6-0.2c0.7-0.3,1-1,1.6-1.3c0.5-0.2,0.8-0.1,1.2-0.2c0.8-0.2,1.3-1.4,3-2.1c0.4-0.1,0.8,0,1.2-0.1
		c0.9-0.1,1-0.5,1.7-0.8c1.6-0.7,3.2-0.1,4.3,1.1c1,1.3,1.1,1.8,2.8,2c1.6,0.2,2.2,0.9,3,2.2c0.9,1.5,1.7,0.9,3,1.7
		c0.9,0.6,0.6,1.6,1.6,2.1C130.8,85.5,133,85.8,132,86.7"/>
	<path class="st2" d="M81.4,62c-0.6,0.5-1.2,0.8-1.8,1.1c-0.8,0.5-1.4,0.5-2.4,0.5c-1.4,0-2.7-0.1-4,0.1c-1.6,0.3-2.9,0.9-4.5,1.4
		c-1.3,0.5-2.6,0.3-3.9,0.1C63,65,61,65.1,59.2,65.7c-1.6,0.4-3.4,0.9-5,0.3c-0.6-0.3-1-0.7-1.7-0.8c-0.7-0.1-1.3-0.1-2-0.3
		c-1.8-0.2-4.2-1.2-2.5-3.1c0.4-0.5,1.1-0.8,1.4-1.4c0.4-0.7,0.1-1.4,0.5-2.1c0.7-1.4,2-0.9,3.2-1.1c0.7-0.2,1.1-0.8,1.8-1.1
		c0.6-0.3,1.1,0,1.6-0.2c0.7-0.3,1-1,1.6-1.3c0.5-0.2,0.8-0.1,1.2-0.2c0.8-0.2,1.3-1.4,3-2.1c0.4-0.1,0.8,0,1.2-0.1
		c0.9-0.1,1-0.5,1.7-0.8c1.6-0.7,3.2-0.1,4.3,1.1c1,1.3,1.1,1.8,2.8,2c1.6,0.2,2.2,0.9,3,2.2c0.9,1.5,1.7,0.9,3,1.7
		c0.9,0.6,0.6,1.6,1.6,2.1C80.3,60.8,82.5,61.1,81.4,62"/>
</g>
</svg>
