<?xml version="1.0" encoding="utf-8"?>
<!-- Generator: Adobe Illustrator 24.2.3, SVG Export Plug-In . SVG Version: 6.00 Build 0)  -->
<svg version="1.1" id="Layer_1" xmlns="http://www.w3.org/2000/svg" xmlns:xlink="http://www.w3.org/1999/xlink" x="0px" y="0px"
	 viewBox="0 0 1764.2 2324.5" style="enable-background:new 0 0 1764.2 2324.5;" xml:space="preserve">
<g>
	<g>
		<path d="M381.5,298.1c-0.6-25.7,4.8-50.7,13.6-74.7c4.7-12.7,9.2-26-1.2-37.1c-6.6-7-16-10.2-23.5-15.9
			c-12.5-9.6-10.4-23.9-12.1-37.9c-2-16.8-12.3-31.3-28-38c-5-2.1-12.2-4.9-17.2-2.2c-4.7,2.6-8.3,9-12.9,12.1
			c-6,4.1-15.1,7.3-22.1,3.2c-9.7-5.7-7.8-22.6-10.5-32.3c-2.6-9.4-7-18.2-12.9-25.9c-11-14.2-27.8-23.2-45.9-23.7
			c-8.8-0.2-16.9,2-24.8,5.6c-6.4,2.9-12.2,6.2-19.3,7.5c-7,1.3-14.1,1-21.2,0.9c-13-0.2-26.2-0.8-38.9-4.1
			C89.9,31.6,80.3,23.4,69,13.8C50.4-2,28.3-1.2,5.3,1.6c-1.7,0.2-3.6,1.1-4,3c-2.8,13-0.6,25,3.3,37.6C9.2,57,13,70.4,13.7,86
			c1.4,30.2,0.8,59.3,12.7,87.8c20.3,48.8,61.5,87.5,72,140.6c0.3,1.7,2.3,3.1,4,3c9.9-0.5,19.9-1,29.8-1.5c2.5-0.1,4.9-2.6,4-5.3
			c-27.3-80.9-50.5-163-69.5-246.2c-1.3,1.8-2.7,3.5-4,5.3c28.3-3.3,34.2,31.3,35.9,51.9c1.4,17.8,4.2,34.3,14,49.6
			c16.9,26.5,44.4,43.9,62.2,69.6c9.1,13.1,13.8,28,9.2,43.7c-4.9,16.9-17.6,33.1-10.5,51.3c4.9,12.6,17.1,19.5,29,24.4
			c16,6.6,32.4,10.8,46.7,21c27.7,19.9,45.1,50.7,71.4,72.1c27.6,22.4,58.2,23.2,92.1,17.2c19.4-3.4,39.9-8.9,59.7-5.8
			c21.4,3.3,33.3,18,44.3,35.2c8.6,13.5,17.5,27.1,32.5,34.2c14.8,7,32.1,7,46.5,14.8c21.6,11.8,11.5,39.3,22.4,57.9
			c6.7,11.5,18.2,18.6,30.3,23.3c28.8,11.3,67.6,9.7,90,33.7c2.6,2.8,6.8,0.5,7.1-2.9c0.5-6.4,1.2-18.1,10.1-17.3
			c6,0.5,12,7,15.8,11.2c11.6,12.8,16.4,27.3,17.5,44.2c3,43.4,3.1,91.3-31.1,123.2c-14.7,13.8-29.1,25.4-34.2,45.8
			c-2.6,10.4-3.1,21.2-5.2,31.7c-2.6,12.7-8.4,23.7-15.3,34.5c-11.2,17.5-22.5,34.2-24,55.5c-1.5,20.3,5.4,40.3,15.1,57.8
			c22.2,39.7,61.6,64.5,89.7,99.3c27.8,34.4,31.5,79.3,54.9,115.8c23.3,36.5,64.4,43.9,100,63.4c40.9,22.4,55.8,65.8,57.6,110.2
			c2,49.6-11.8,98.8-6.6,148.4c2.6,24.8,11.4,47.3,19.6,70.7c9.1,26.1,12.6,52.3,12.6,80c-0.1,53.6-0.8,106.3,5.4,159.7
			c3,25.4,7.1,50.7,11.4,75.9c4,22.9,5.3,46.1,8.5,69.2c3,21.9,8,43.5,18.1,63.3c9.8,19.1,24.2,35.2,38.9,50.7
			c15,15.9,30.8,31.3,42.7,49.8c12,18.6,14.6,39.2,22.6,59.4c7,17.8,19.6,27.5,37.3,34.1c24.1,9,49.4,15.6,74.7,20.3
			c19.8,3.7,43.4,9.6,63.4,5.5c11-2.2,26.7-8.9,27.3-22.2c0.8-16.9-19.1-20.3-31.3-23.7c-24.5-6.7-48.5-18.1-68.2-34.2
			c-17.6-14.3-33-33.5-38.4-55.9c-6-24.9,6.1-44.8,14.8-67.2c6-15.5,8.1-32.9-0.5-47.9c-3.2-5.6-7.9-10.5-13.9-13.1
			c-10.3-4.5-25.7,1.2-27.3-14.2c-2.1-20.5,25.1-31.8,33.5-48.5c6.8-13.6,7.8-29.9,3.6-44.5c-4.3-14.8-13.6-27.4-27-35.1
			c-0.7,2.6-1.4,5.2-2.1,7.7c21.6-2.2,43.1-4.4,64.7-6.6c2.4-0.2,4-1.7,4.1-4.2c1.3-16.3-2.5-31.5-11.1-45.4c-1.6,2-3.1,4.1-4.7,6.1
			c28.3,4.1,57.6-7.5,73.7-31.6c17.1-25.5,15-60.3-2.9-84.7c-1.6,2-3.1,4.1-4.7,6.1c38.1,8.2,68.3-19.8,89.5-48.2
			c14.4-19.2,26.1-40.4,38.6-60.9c12.2-20,25-39.9,33.2-62c3.8-10.2,6.5-20.8,7.4-31.7c1.1-13-3.5-27.2-0.2-39.9
			c5.4-20.7,30.3-26.9,48.2-31.8c37.8-10.5,70.4-28.2,95.3-59.2c25.8-32.2,37.2-70.8,36.6-111.8c-0.7-47.6-13.2-96.1,2.6-142.6
			c6.8-19.9,18.8-38.8,37.4-49.5c7.6-4.4,16.6-6.5,23.4-12.3c7-5.9,10.1-14.4,11.9-23.1c6.7-31.5,10.4-71.4-6.1-100.5
			c-8.7-15.4-23-23.4-39-29.7c-22.1-8.7-45.4-13.5-68.5-18.9c-24.1-5.5-46.5-13.4-69-23.8c-20.9-9.7-41.6-20.2-63.7-27
			c-41.3-12.6-87.5-8.7-114.8-48.1c-19.2-27.8-26.3-61.8-41.7-91.5c-6.9-13.3-15.5-25.9-27.4-35.2c-15.5-12.1-33.9-14.8-52.4-19.8
			c-24.4-6.7-41.8-23.2-59.6-40.3c-16.1-15.4-33.1-29.4-52.4-40.6c-37.5-21.8-80.7-34-124.2-34.6c-23.1-0.3-53,9.1-73.5-4.7
			c-9.3-6.3-16-15.8-25.4-22.1c-8.5-5.7-18.3-9.5-28.5-11.3c-37.6-6.5-74.5,17.7-83.5,55c-2.6,10.9,0.1,27.3-14,30.5
			c-12.6,2.8-23.4-8.1-32.5-15c-17.9-13.6-35.5-13.2-56.3-6.5c-18.2,5.8-51,19.3-62.6-4.4c-5.6-11.5-1.6-25.8,0.4-37.7
			c2.5-15,4.9-29.9,7.4-44.9c2.1-12.7,4.2-25.4,6.3-38.1c1.5-9,4.2-19.5,0.9-28.4c-6.9-18.5-29.8-14-45.2-12.8
			c-27.6,2.1-55.3,4.1-82.9,6.2c1.4,1.4,2.8,2.8,4.2,4.1c-2.8-36.6,32.6-58.9,50.7-86.3c7.9-11.9,14.4-25.9,14.3-40.4
			c0-5.7-0.9-11.9-3.5-17c-3.2-6.6-9.2-6.8-16.2-8.6c-27.6-7.5-61.4-9.9-80.6,15.8c-3.7,5-6.3,10.6-7.3,16.8
			c-1.4,8.7,2.2,17.4,0.1,25.9c-4.3,17.4-36.6,20.1-51.3,24.2c-11.3,3.1-30.1,11.7-41.3,6.3c-9.1-4.4-15.4-16.8-20.1-25.2
			C388.6,342.6,382.7,320.7,381.5,298.1c-0.3-5.3-8.6-5.3-8.3,0c1.6,31.3,12.1,68.1,34.9,90.9c11.3,11.4,24.4,8.7,38.6,4.8
			c18.1-4.9,37.3-8.5,54.7-15.4c10.8-4.3,19.3-11.3,20-23.5c0.5-8.9-2.8-17.2-0.2-26c3-9.8,11.5-17.6,20.4-22
			c17.5-8.7,42.7-6.2,60.4,1c20.3,8.3,4.6,40.1-3.8,52.8c-19.2,28.9-54.8,51.6-51.8,90.5c0.2,2.1,1.8,4.3,4.2,4.1
			c27.6-2.1,55.3-4.1,82.9-6.2c10-0.7,29.4-5.4,36.2,4.9c6.7,10.1-0.8,30.7-2.6,41.6c-4.4,26.6-9.2,53.1-13.1,79.8
			c-2.3,15.4-2.3,33,12.1,42.7c12.8,8.6,30.1,7.2,44.3,3.2c10.6-3,20.8-7.7,31.7-9.8c16.1-3.1,27.3,2.4,39.6,12
			c11.3,8.9,27.1,19.2,41.8,11.3c6.3-3.4,9.5-9.6,11-16.4c2.4-11.4,2.6-21.9,8.1-32.6c10.3-20.1,30.5-34,53.2-35.3
			c12.1-0.7,24.4,1.9,35.1,7.6c10.8,5.7,18.1,15.2,27.5,22.8c16.6,13.4,37,11.3,57,9.7c22.9-1.9,45.8-0.7,68.3,3.8
			c45,9,86.8,30.5,120.3,61.8c14.8,13.8,28.8,29,46.5,39.2c19.4,11.1,42.3,10.9,62,20.9c30,15.3,41.7,50.3,53,79.6
			c10.9,28,22.7,58,48.2,75.9c16.7,11.7,37,15.9,56.7,19.4c22.8,4,44.2,9,65.6,18.1c21,8.9,41.2,19.7,62.4,28
			c21.6,8.4,44.1,12.8,66.5,18.2c21,5,44.2,10.2,62.8,21.6c17.1,10.5,24.4,29.6,26.6,48.8c2.1,17.9,0.5,36.3-2.3,54.1
			c-1.8,11.8-3.7,24.5-14.8,31.1c-8.5,5.1-17.9,7.8-26,13.8c-27.7,20.7-39,56.8-41.5,90c-3.7,49.1,12.3,98.6,1.2,147.4
			c-9,39.7-34.3,75.2-68.3,97.4c-17.2,11.2-35.6,17.3-55.2,22.8c-14.9,4.2-31.4,8.9-42.7,20.2c-14.6,14.7-9.7,32.6-9.6,51.2
			c0.1,25.5-11.4,49.2-23.8,70.7c-12.3,21.3-25.4,42.3-38.3,63.3c-10.9,17.8-23.1,35.1-38.6,49.2c-16.1,14.5-35.8,24.1-57.8,19.4
			c-3.2-0.7-7,2.9-4.7,6.1c15.5,21.2,18.5,50.6,4.7,73.5c-13.5,22.4-40.5,34.3-66.1,30.5c-3.3-0.5-6.8,2.7-4.7,6.1
			c7.9,12.7,11.1,26.3,9.9,41.2c1.4-1.4,2.8-2.8,4.1-4.2c-21.6,2.2-43.1,4.4-64.7,6.6c-3.9,0.4-5.9,5.5-2.1,7.7
			c17,9.9,26.4,29.2,25.4,48.7c-0.5,9.5-3.4,18.6-9.1,26.3c-6.8,9.2-16.9,15.3-23.7,24.6c-7.3,9.9-10.5,25.7-1.2,35.6
			c5.3,5.7,11.9,5.4,19,6c12.5,1.1,19.4,10.5,21.7,22.2c4.5,22.9-11.6,42.8-18,63.7c-5.5,18.2-3.4,37,4.4,54.2
			c17.1,37.7,55.6,62.8,93.5,76.1c9.9,3.5,24.5,4.2,33.1,10.4c14.4,10.4-2.8,20.5-12.8,23c-10.2,2.6-20.4,1.1-30.7-0.1
			c-14.7-1.7-29.4-4.2-43.9-7.3c-24-5.2-50.8-10.8-72.6-22.4c-21.6-11.4-23.7-35.1-30.5-56.1c-12.8-39.5-45.9-65.8-72.1-96.1
			c-16.1-18.6-28-39.1-34.4-63c-6-22.4-7.6-45.6-10.2-68.6c-5.7-51.7-16.6-102.4-20.1-154.4c-1.7-25.9-2.2-51.9-1.6-77.9
			c0.6-24.7,1.7-49.4-1.7-74c-3.5-25.6-13.9-48.8-21.8-73.2c-8.5-26.3-10.1-53.3-8.5-80.7c2.7-45.5,12.1-90.8,3.6-136.3
			c-7.2-38.5-27.5-70-62.8-87.9c-18.3-9.3-38-15.4-56-25.2c-20.4-11-34.7-26.9-44.6-47.8c-9.1-19.3-14.6-40.1-22.8-59.9
			c-7.9-19.1-18.8-35.9-32.6-51.2c-31-34.5-72.5-61.4-89.3-106.6c-8.7-23.4-7.5-46.6,5.1-68.4c10.9-18.9,24.4-35.3,28.5-57.3
			c2-10.5,2.5-21.3,5.3-31.6c3.5-13,11.5-22.2,21.2-31.1c14.3-13.1,27-25.4,34.6-43.7c7.3-17.6,9.9-36.7,10.4-55.6
			c0.5-17.9,1.1-38.1-2.8-55.7c-3.7-16.4-23.2-52.2-44.9-46.8c-10.9,2.7-12.7,16-13.4,25.4c2.4-1,4.7-2,7.1-2.9
			c-19.3-20.7-50.2-23.4-76.1-30.2c-13.3-3.5-27.8-7.9-37.7-18.1c-14.2-14.7-7.4-34.9-15.3-52c-6.4-13.9-20.9-19.2-34.8-22.8
			c-19.3-5-35.6-9.2-47.9-26.1c-10-13.6-17.1-29.7-30.7-40.3c-13-10.2-29.2-13.4-45.4-12.7c-38,1.6-78.1,21.1-114.5,1.9
			c-30.9-16.3-49.3-48.7-74.3-71.9c-11.2-10.4-23.6-18.8-37.9-24.4c-15.4-6-37.9-9.9-46.9-25.4c-10.9-18.8,9-40,11.1-59
			c1.4-12.9-2.5-25.4-9.2-36.3c-18.7-30.4-52.4-48.8-69-80.7c-11.4-22-5.4-47.5-14.1-70.1c-6.2-16.1-20.4-30.7-38.8-28.5
			c-2.7,0.3-4.7,2.4-4,5.3c19,83.2,42.2,165.3,69.5,246.2c1.3-1.8,2.7-3.5,4-5.3c-9.9,0.5-19.9,1-29.8,1.5c1.3,1,2.7,2,4,3
			c-9.8-50.1-46.7-87.5-68.2-132.3c-13.5-28.1-14.9-56.8-15.9-87.5c-0.4-13.8-1.5-26.9-5.7-40.1c-4.7-15-10.7-29.4-7.3-45.4
			c-1.3,1-2.7,2-4,3C15,8.7,24.8,7.5,34.6,8.2c15.1,1.1,24.8,8.3,35.8,18c14.1,12.4,30.5,18.3,49.1,20.4c18.3,2.1,40.2,4.3,57.5-3
			c11.9-5,21.8-10.8,35.2-9.5c12.4,1.2,24,7.2,32.4,16.2c7.6,8,12.6,18.1,15.3,28.7c2.1,8.2,1.5,17.3,4.9,25.2
			c5.6,13,20.7,16,32.9,10.8c7.3-3.1,16-15.5,23.5-14.9c12.1,1.1,23.5,14,27,24.7c6.2,18.7-1.1,38,16.5,51.7
			c7.9,6.1,20.9,9.6,25.7,18.9c4.4,8.6-0.9,18.8-3.9,27c-8.8,24.2-14,49.7-13.4,75.6C373.4,303.4,381.6,303.5,381.5,298.1z"/>
	</g>
	<g>
		<path d="M870.9,645.6c-14.3-15.2,9.3-36.3,24.3-37.7c12.5-1.1,25.2,4.1,36.4,9.1c11.9,5.3,23.5,11.1,36.2,14.2
			c27.6,6.8,56.2,3.1,84.3,3.7c25.1,0.5,48.6,6.3,71.2,17.2c42.1,20.3,78.2,51.6,122.1,68.2c11.1,4.2,23,6.2,34.1,10.5
			c12.8,5,18.9,15.3,23.7,27.6c8.8,22.8,18.3,45,30.5,66.2c24.1,42,57.2,79.5,99.8,103.2c45.4,25.3,97.3,34.6,147.5,45.6
			c24.8,5.4,50.3,10.7,73.9,20.2c18.2,7.3,39.9,20.1,44.6,40.7c4.3,19.1-8.8,34.1-23.2,44.6c-15.7,11.4-33.5,20.1-47.7,33.6
			c-36.8,35.1-29.1,91.3-18.6,135.7c6.4,27,14.2,54.6,12.7,82.6c-1.2,20.7-7.9,42.4-21.9,58.1c-6.7,7.5-14.9,13.4-24.4,16.8
			c-5,1.8-2.8,9.8,2.2,8c20.5-7.4,35-24,43.4-43.7c9.5-22.4,10.5-46.4,7.3-70.2c-4-29.4-13.7-57.6-18-86.9
			c-3.4-23.5-3.1-49.3,6.9-71.3c9.4-20.7,27-32.6,45.6-44.4c15.5-9.9,33.4-20.5,41.1-38.1c8.6-19.7,0.9-40.3-14.5-53.9
			c-17.8-15.8-41-23.1-63.5-29.2c-51.9-14.2-106-20.7-156.5-40.1c-24.4-9.4-47.5-22.3-67.5-39.3c-19.2-16.2-35.7-35.5-49.7-56.3
			c-14.2-21.3-26-44.2-35.7-67.9c-4.6-11.2-7.9-23.7-14.8-33.7c-7.5-10.8-18.7-15.6-31-19c-11.9-3.2-23.4-6.7-34.7-11.8
			c-11-5-21.7-10.8-32.1-17c-20.9-12.4-41-26.3-62.3-38.1c-20.9-11.6-43.3-21.2-67.2-24.5c-28.9-4-58.1,0.6-87.1-2
			c-14.4-1.3-27.8-5.3-41-11.2c-11.9-5.3-23.8-11.5-36.7-14.1c-11.1-2.3-22-1.8-31.9,4c-8.4,4.9-15.5,12.7-18.8,21.9
			c-3.1,8.7-1.3,17.9,5.1,24.6C868.7,655.4,874.5,649.5,870.9,645.6L870.9,645.6z"/>
	</g>
	<g>
		<path d="M1515.8,1441.2c-3.9,18-22.7,26.7-36,37.1c-16.2,12.7-23.6,28.9-25.6,49.1c-2.2,22-1,43.6-6.2,65.3
			c-5,20.7-13.5,40.4-25,58.3c-11.8,18.4-26.8,34.9-44.2,48.1c-15.8,11.9-33.8,20.4-49.5,32.5c-14,10.8-24.9,24.4-27.4,42.4
			c-1.2,9.1-0.9,18.4-1.4,27.6c-0.4,8.3-1.5,18.2-8.2,24c-8.9,7.8-23.1,5.7-33.5,10.5c-8.6,3.9-15.7,10.3-21.1,18
			c-11,15.6-13.7,36.1-5.9,53.6c1.9-1.9,3.8-3.8,5.7-5.7c-20.2-10.9-37.5,12-40.6,30c-2.3,13,1.7,26.4,2.4,39.5
			c0.3,6.3,0.2,12.8-1.9,18.8c-2.6,7.5-8.3,12.6-13.7,18c-9.2,9.2-14.4,19.6-15.2,32.6c-0.8,13.7,2.5,27.4,5.6,40.7
			c7.2,31.3,16.3,62.2,27.3,92.4c5.6,15.5,12.9,30.5,17.8,46.3c3.6,11.7,7.1,28.5-4.4,37.1c2,0.8,4.1,1.7,6.1,2.5
			c-12.9-41.6-23.1-89-52.9-122.5c-14.2-16-32.5-24.7-51.4-33.9c-9.5-4.7-19.2-9.8-27-17.1c-8.7-8.1-13.9-18.6-17.2-29.9
			c-7.2-25.1-8.7-52.5-10.6-78.4c-2-27.2-2.7-54.5-2.9-81.8c-0.5-54.2,0.9-108.5-1.7-162.7c-1.3-26.7-3.5-53.4-7.3-79.9
			c-3.9-26.8-9.9-53.3-14.8-79.9c-5-26.8-8.8-54-7.7-81.3c1.1-26.8,8.6-52.4,13.8-78.6c4.6-23.7,6.9-48.3-0.3-71.8
			c-6.2-20.1-18.2-37.9-32.4-53.1c-31.6-33.9-73.9-54.3-108.9-84.1c-18.9-16.1-33.1-34.7-45.8-55.9c-12.5-20.9-25.5-40.1-43.4-56.8
			c-30.5-28.5-74.8-59.7-67.6-107.8c1.5-9.7,5.7-18.4,12.6-25.3c3.8-3.8-2.1-9.7-5.9-5.9c-29.7,29.9-12.6,77.1,11.7,104.3
			c15.9,17.8,35.3,31.9,51.9,49c18,18.4,29.2,41,43.1,62.3c26.1,39.9,66.7,63.5,104.7,90.6c37.8,27,75,63,76.4,112.5
			c0.7,26.4-6.9,52-12.3,77.6c-5.5,26.2-7.2,52.2-4.8,78.8c2.4,26.4,7.8,52.5,12.9,78.5c5.5,27.5,10.2,55.1,12.8,83.1
			c10.4,110-2.1,221.1,11.8,330.9c2.8,22.1,5.3,46.6,19.6,64.7c13.1,16.5,33.3,24.1,51.6,33.4c20.2,10.3,35.8,24.7,47.3,44.3
			c11.4,19.3,18.5,40.7,25.1,62c3.9,12.4,7.7,24.8,11.5,37.1c0.7,2.3,3.9,4.2,6.1,2.5c18-13.4,12-38,4.9-55.8
			c-11.3-28.4-22-56.8-30.6-86.2c-4.4-15-8.3-30.2-11.7-45.5c-2.9-12.7-6.1-26-4.5-39.1c0.9-7,3.5-13.7,8.1-19.1
			c4.6-5.4,10.3-9.8,14.6-15.5c7.4-9.8,8.6-22,7.8-33.9c-1-13.5-5.3-27.9-1-41.1c3.4-10.6,14.2-26,26.9-19.1c3.9,2.1,7.3-2,5.7-5.7
			c-7.5-16.7-2.4-37,9.9-50.1c6.3-6.7,14-11,23-12.8c9.9-2,20-2.5,27.4-10.2c11.6-11.9,9.4-31,10-46.2c0.4-9.4,1.8-18.3,6.7-26.5
			c4.8-8.1,11.8-14.7,19.3-20.3c15.7-11.8,33.6-20.3,49.2-32.3c16.1-12.4,30.2-27.3,41.8-44.1c11.6-16.7,20.6-35.2,26.5-54.6
			c6.2-20.2,8.2-40.5,8.8-61.5c0.3-12.1,0.7-24.5,4.8-36c3.9-10.9,11.4-18.8,20.5-25.7c14.5-10.9,32.7-20.6,36.9-39.8
			C1524.9,1438.2,1516.9,1436,1515.8,1441.2L1515.8,1441.2z"/>
	</g>
	<g>
		<path d="M782.4,882.5c6.4,6.7,15.6,0.5,20.3-5.1c5-6,9.6-12.4,13.8-19.1c8.2-13.1,14.6-27.3,19.3-42c9.4-29.6,11.5-61.5,6.1-92.1
			c-3-17.2-8.6-33.9-16.5-49.4c-2.4-4.8-9.6-0.6-7.2,4.2c13,25.6,18.9,54.4,18.3,83c-0.7,28.6-7.9,57.2-21.5,82.4
			c-3.8,7.1-8.1,13.8-12.8,20.3c-2.3,3.1-4.6,6.3-7.3,9c-1.2,1.2-2.5,2.3-4,2.9c-0.6,0.3-1.3,0.4-1.7,0.4c-0.4,0-0.4,0-0.8-0.5
			C784.5,872.8,778.6,878.7,782.4,882.5L782.4,882.5z"/>
	</g>
	<g>
		<path d="M898.5,683.6c15.6-13,36.5-18.7,56.6-17c10.1,0.8,20,3.7,28.9,8.5c9.1,4.9,17.1,11.5,24.9,18.3c16,14,31.9,28.9,53.1,34.3
			c23.9,6.1,48.6,1.5,72.9,3c44.8,2.6,79.7,33.9,106.5,67.3c28.8,36,52.2,76.7,89.5,104.9c33.1,25,73.7,40,103,70
			c3.4,3.5,6.7,7.2,9.6,11.1c1.4,1.8,3.6,2.7,5.7,1.5c1.8-1,2.8-3.9,1.5-5.7c-26.3-34.6-67.2-51.5-102.5-74.9
			c-19-12.5-35.3-27.8-49.8-45.3c-15.1-18.1-28.3-37.7-42.5-56.5c-26.2-34.6-59.5-69.7-103.9-78.6c-24.4-4.9-49.1-0.2-73.6-2.4
			c-11.6-1-22.7-4.2-32.8-10.2c-9.1-5.4-17.1-12.4-25-19.4c-16.1-14.2-32.5-28.1-54.1-32.7c-20.4-4.3-42.3-1.3-60.7,8.8
			c-4.6,2.6-9,5.6-13.1,9C888.6,681.1,894.5,686.9,898.5,683.6L898.5,683.6z"/>
	</g>
	<g>
		<path d="M1512.2,1025.1c16.9-0.5,36.9-1.5,50.9,9.5c12.7,9.9,17.2,26.7,5.5,39.1c-5.5,5.8-12,10.4-17.6,16.1
			c-5.9,6.1-11.1,13-15.9,20c-9.5,14.3-18.3,29.7-25.4,45.4c-6.8,14.8-9.7,30-6.5,46.2c3,15.2,10.3,29.2,16.7,43.2
			c6.6,14.4,12.5,29.5,12.1,45.6c-0.4,14.4-5.7,28-13,40.2c-15.7,26.2-39.1,46.8-57.8,70.8c-21.1,27.1-35.4,58.7-45,91.5
			c-4.8,16.6-8.5,33.5-11.4,50.5c-2.8,16.5-5,33.9-12.5,49.1c-14.3,28.7-47,37.3-70.7,56.1c-24,19.1-33.4,48.5-42.7,76.5
			c-4.8,14.5-9.8,29.1-17.7,42.3c-8.8,14.8-21.4,26.6-33.9,38.1c-12.4,11.5-23.7,23.1-32.6,37.6c-9.1,14.8-16.2,30.8-23.6,46.5
			c-8.2,17.5-16.9,35-24.5,52.8c-7.1,16.7-10.8,33.5-12.1,51.5c-1.3,18.2-1.1,37-7.4,54.3c-2.1,5.8-8.3,18.1-15.7,10.6
			c-5.7-5.9-8.1-16.1-10.3-23.7c-5.4-18.4-7.5-37.6-9.9-56.5c-2.4-19.6-4.2-39.5-1.2-59.1c2.9-19.3,9.3-37.9,14.1-56.8
			c4.7-18.4,8.3-37.1,11-56c5.3-37.8,6.8-76,5.5-114.2c-0.6-19.5-2-38.9-3.8-58.3c-1.8-18.5-3.5-37.3-6.8-55.6
			c-2.7-15.3-9.7-29.2-16.6-42.9c-7.6-15-13.1-29.6-16.1-46.2c-11.7-66.2-4-135.5-24.6-200.2c-4.8-15.1-11.3-29.7-19.5-43.3
			c-2.8-4.6-9.9-0.4-7.2,4.2c36.5,60.4,31.9,133.9,38.1,201.6c1.6,17,3.5,34.2,7.3,50.8c3.6,15.7,11.2,29.8,18.3,44.1
			c3.6,7.3,7,14.7,9.4,22.5c2.8,9,3.9,18.2,5,27.5c2.5,19.6,4.6,39.3,6.1,59.1c2.9,39.4,3.5,79,0.1,118.4
			c-1.7,19.9-4.4,39.7-8.2,59.2c-3.8,19.5-9.4,38.4-14.5,57.5c-5.1,19.2-8.2,38.4-7.5,58.2c0.8,19.8,3.6,39.6,6.7,59.1
			c2.7,17.2,6,37,15.4,51.9c3.5,5.5,8.9,9.9,15.8,8.9c6.7-1,11.5-6.8,14.4-12.5c7.8-15.8,8.6-34.5,9.6-51.8
			c1.1-19.3,3.3-37.5,10.5-55.5c7.4-18.6,16.7-36.6,25.2-54.8c7.6-16.3,15-32.9,24.5-48.2c18.5-29.6,50.6-47.1,67.7-77.7
			c15.2-27.3,19.6-59.1,34.5-86.6c7.6-14,18.1-25.1,31.5-33.8c13-8.4,27.1-15,39.5-24.3c12.7-9.5,22-21.3,27.6-36.1
			c6.1-16.1,7.9-33.4,11-50.2c6.4-35.2,16.7-70.2,34.1-101.7c16.2-29.3,39.9-51.9,60.8-77.5c18.4-22.5,34.5-49,30.6-79.3
			c-4-31.8-28.8-57.9-29.6-90.2c-0.5-18.7,9.5-35.3,18.2-51.2c8.6-15.6,17.6-31.2,30.4-43.8c10.7-10.5,25.2-19.1,25.3-35.9
			c0.1-14.1-9.8-27.4-21.9-33.9c-15.3-8.1-33.2-7.8-50-7.3C1506.9,1016.9,1506.9,1025.2,1512.2,1025.1L1512.2,1025.1z"/>
	</g>
	<g>
		<path d="M984.4,1218c-12.7-22-29.1-42-48.3-58.7c-9.9-8.6-20.6-16.1-31.6-23.2c-11.1-7.3-22.4-14.5-32.1-23.6
			c-18.7-17.6-30.4-41.1-41.2-64c-9.9-21-18.4-43.4-21.5-66.6c-2.9-21.4-0.4-44.1,13.1-61.7c7.4-9.7,17.7-16.7,25.6-26.1
			c8.3-9.8,12.6-21.7,14.4-34.3c1.9-12.8,1.7-25.8,2.5-38.7c0.8-13.3,2.6-26.6,6.5-39.3c6.7-21.7,21.6-42.6,44.1-49.8
			c24.2-7.8,46.5,6,65.5,19.7c20,14.4,41.9,31.6,68,30.6c6.3-0.2,12.2-1.7,17.9-4.2c2.1-0.9,2.5-3.9,1.5-5.7
			c-1.2-2.1-3.6-2.4-5.7-1.5c-24,10.5-50.2-6.4-68.9-20.1c-19.6-14.4-41.5-31.2-67.3-29.4c-23.7,1.7-44,18.4-55,38.8
			c-13.1,24.2-14.6,51.8-15.7,78.7c-0.5,12.4-1.3,25.1-6.1,36.7c-4.8,11.7-14.3,19.6-23.3,28c-8.8,8.3-16,17.7-20.6,29
			c-4.1,10.2-5.9,21.3-6,32.3c-0.2,23.8,6.8,47.3,15.6,69.2c4.6,11.4,9.9,22.6,15.4,33.6c6,11.8,12.5,23.5,20.5,34.1
			c8.1,10.7,17.5,19.8,28.2,27.7c10.8,8,22.3,14.8,33.3,22.5c20.9,14.7,39.2,33.1,53.7,54.1c3.6,5.2,7,10.6,10.2,16.1
			C979.9,1226.8,987.1,1222.6,984.4,1218L984.4,1218z"/>
	</g>
	<g>
		<path d="M1127,810.4c31.7,2.9,50.8,33,63.1,59.1c7.1,15,13.3,30.5,21.9,44.8c6.8,11.3,15.2,21.8,24.5,31.1
			c38.1,37.9,90.9,56.2,140.5,73.8c12.8,4.6,25.7,9.1,38.4,13.9c13.1,4.9,27.9,9.4,38.5,19c23.9,21.6,3.7,55.6-5.6,79.2
			c-5.1,13-8.5,26.2-8.4,40.2c0,13.2,2.5,26.3,5.7,39c6.6,26,17.5,51.8,18.5,78.9c0.5,13-1.9,26-8.4,37.4
			c-6.5,11.4-16.5,20.3-26.6,28.5c-21.2,17.2-43,32.9-51,60.5c-4.2,14.6-4.8,30-5.6,45.1c-0.9,15.8-1.4,32.4-8.5,46.8
			c-6.7,13.7-16.5,25.5-24.6,38.3c-9.9,15.7-19.9,31.4-30,47c-19.4,29.8-39.4,59.1-60.7,87.5c-10.7,14.2-21.6,28.2-33,41.9
			c-10.1,12.1-21.1,23.8-29.2,37.4c-8.6,14.6-10.8,30.8-15.1,46.9c-2.2,8.4-5.2,16.5-9,24.3c-1.6,3.4-3.4,6.6-5.3,9.9
			c-1.9,3.3-4.2,8.4-7.2,10.9c-3.6,3-4.1-3.1-4.5-5.8c-0.6-4.5-0.9-9-1.2-13.5c-0.5-8.6-0.7-17.3-0.5-26c0.4-17.1,1.9-34.1,4-51
			c4.3-34.4,10.8-68.6,14-103.1c3.2-34.2,2.4-68.2-4.9-101.9c-7.4-33.8-19.7-66.3-30.3-99.1c-11.2-34.3-19.7-69.3-24.2-105.1
			c-2.2-17.4-3.5-34.9-4-52.4c-0.2-5.3-8.5-5.3-8.3,0c1.1,36.8,5.8,73.4,14.2,109.3c8.3,35.4,21.1,69.4,32.1,103.9
			c10.9,34.2,19,68.8,19.2,104.8c0.2,36.2-5.6,72.1-11,107.8c-5.2,34.8-10.2,69.9-8.9,105.1c0.3,8.4,0.5,17.1,2.1,25.4
			c0.9,4.9,3.7,10.5,9.2,11.3c7.1,1,11.2-6.7,14.4-11.7c4.4-6.8,8.1-14.1,11.3-21.5c6.9-16.4,8.7-33.9,14.5-50.6
			c5.6-16.1,17.1-29.1,28-41.9c23.3-27.4,44.9-56.1,65.5-85.5c21.5-30.7,41.9-62.3,61.9-94c8.6-13.6,18.8-26.5,26.5-40.6
			c7.6-13.9,9.8-28.6,11-44.2c1.2-16.2,1-32.6,4.7-48.5c3.4-14.9,10.7-27.3,21.6-38c19.2-18.8,45.1-31.9,57.8-56.6
			c12.4-24,8.5-51.2,1.8-76.3c-7.2-27.1-18.4-54.3-17.9-82.8c0.6-30.1,20.7-54.6,24.7-83.9c1.8-13.2-1.2-26.4-10.3-36.4
			c-9.7-10.7-24-15.8-37.2-20.9c-52.1-20.3-108.1-34.5-155.1-65.9c-23.8-15.9-43.4-36.5-56.7-61.9c-14.8-28.4-24.2-60.9-49.7-82.1
			c-10.7-8.9-23.1-14.7-37-16C1121.6,801.6,1121.7,809.9,1127,810.4L1127,810.4z"/>
	</g>
	<g>
		<path d="M1082,1246.7c-6.2-24.9-19.4-48-37.5-66.2c-9.1-9.1-19.4-16.8-30.5-23.4c-11-6.5-22.6-12-33.8-18.2
			c-11-6-21.8-12.7-30.8-21.5c-9.2-9-15.6-20.2-23.5-30.4c-4-5.1-8.3-9.8-13.5-13.7c-5.3-4-11.3-6.9-17.4-9.5
			c-11.3-4.8-23.5-8.6-32.3-17.6c-16-16.4-16.9-42.1-16.5-63.6c0.1-2.9,0.2-5.8,0.3-8.7c0.2-5.3-8.1-5.3-8.3,0
			c-0.9,22.9-1.1,48.6,11.4,68.8c6.7,10.7,16.6,17.8,28,22.8c11.7,5.1,24.4,8.8,34,17.8c9.4,8.9,15.7,20.4,23.7,30.6
			c7.9,10.1,17.8,18.2,28.6,25c21.5,13.6,45.9,22.4,65.5,38.9c19.3,16.2,34,37.9,41.8,61.9c1,3,1.8,6,2.6,9.1
			C1075.3,1254.1,1083.3,1251.9,1082,1246.7L1082,1246.7z"/>
	</g>
	<g>
		<path d="M884,929.3c7.5-21.8,14.9-43.6,22.4-65.5c3.6-10.7,7.3-21.3,10.9-32c3.1-9.1,5.8-19.1,12.5-26.3
			c10.5-11.3,27.5-14.3,42.2-11.9c19.2,3.2,35.6,14.8,51,26c16.1,11.7,32.3,23.9,51.6,29.7c4.9,1.5,9.9,2.4,15,2.8
			c4.7,0.4,9.3,0.2,14,0.3c8.4,0.1,17,1.1,22.4,8.4c5.1,6.9,7,15.6,10,23.4c3.1,8,6.7,15.9,10.8,23.4c8.2,15.1,18.4,29.1,30.1,41.7
			c23.3,25.1,52.7,44.6,85.2,55.6c4,1.3,8,2.6,12,3.6c5.2,1.4,7.4-6.6,2.2-8c-33.1-8.9-63.3-26.8-87.6-51
			c-12.2-12.1-22.8-25.8-31.6-40.6c-4.3-7.2-8.1-14.8-11.3-22.5c-3.4-8.1-5.7-16.8-9.6-24.7c-4.2-8.6-11.3-14.9-20.9-16.8
			c-9.6-1.8-19.3-0.1-28.9-1.6c-19.9-3-37-14.8-52.9-26.4c-16.3-11.8-32.8-24.5-52.6-29.9c-15.8-4.4-34.3-3.4-48.5,5.4
			c-7.9,5-13.6,12.2-17.3,20.7c-4.5,10.3-7.7,21.3-11.3,31.9c-7.5,21.8-14.9,43.6-22.4,65.5c-1.9,5.5-3.7,10.9-5.6,16.4
			c-0.7,2.1,0.8,4.5,2.9,5.1C881.2,932.9,883.3,931.5,884,929.3L884,929.3z"/>
	</g>
	<g>
		<path d="M1315.2,1035.1c17.1,10.5,34.1,20.9,51.2,31.4c14.2,8.7,29.8,16.9,37.2,32.7c6.7,14.3,6.4,31.1,6.5,46.5
			c0,9.6,0.1,19.3-0.5,28.9c-0.6,9.6-2.2,18.9-3.9,28.3c-1.8,9.4-2.8,18.8-1.1,28.3c1.5,8.3,4.9,16,8.1,23.7
			c3.2,7.6,6.5,15.2,8.1,23.3c1.5,7.6,1.3,15.6-0.6,23.1c-1.8,7.5-5.1,14.7-9.9,20.7c-5.3,6.8-12.2,12-18.6,17.6
			c-13.5,11.9-22.5,27.4-32,42.5c-18.6,29.7-36.7,60.9-43.5,95.7c-0.8,4.3-1.5,8.6-2,13c-0.3,2.2,2.1,4.1,4.2,4.1
			c2.5,0,3.9-1.9,4.1-4.2c4.1-35.2,21.4-67.1,39.7-96.9c4.7-7.6,9.4-15.2,14.3-22.7c4.9-7.5,10-14.9,16.4-21.3
			c6.4-6.3,13.7-11.5,19.9-18.1c5.8-6.1,10.2-13.2,13.2-21c6.1-15.9,4.8-32.7-1.3-48.4c-3-7.9-6.8-15.5-9.5-23.6
			c-2.9-8.5-3.9-16.8-2.9-25.7c1.1-9.6,3.6-19.1,4.7-28.7c1.1-9.7,1.3-19.5,1.4-29.3c0.1-16.8,0.7-34.4-4.1-50.7
			c-2.3-7.9-6.1-15.3-11.5-21.6c-5.6-6.5-12.7-11.4-19.9-15.9c-16.8-10.5-33.8-20.7-50.7-31c-4.3-2.6-8.6-5.3-12.9-7.9
			C1314.9,1025.1,1310.7,1032.3,1315.2,1035.1L1315.2,1035.1z"/>
	</g>
	<g>
		<path d="M1286.2,1554.6c-12.3,22.2-25.3,44-39,65.3c-3.1,4.9-6.2,9.9-9.7,14.6c-2.6,3.5-6,7.1-10.5,7.7c-10.4,1.5-17-9.4-19.1-18
			c-1.3-5.5-1.6-11.2-1.9-16.8c-0.4-6.5-0.5-13-0.6-19.6c-0.2-12.7,0.1-25.4,0.3-38.2c0.4-25.5,0.8-51.2-2.5-76.5
			c-6.2-48-26.9-91.7-43.3-136.8c-8.3-22.9-14.3-46.3-20.4-69.9c-3.1-12.1-6.4-24.2-10.6-36c-4.1-11.7-9.1-23-14.7-34
			c-5.2-10.4-10.6-21-17.3-30.6c-6.7-9.6-15.1-17.1-25.1-23.1c-10.4-6.2-21.6-11.3-32.5-16.7c-11.5-5.7-23-11.5-34.6-17.2
			c-5.8-2.9-11.5-5.7-17.3-8.6c-4.8-2.4-9,4.8-4.2,7.2c23.6,11.7,47.1,23.4,70.7,35.2c10.2,5.1,20.6,10.6,28.7,18.8
			c8.2,8.4,13.8,19,19.3,29.3c5.8,10.8,11.2,21.9,15.7,33.3c4.7,11.8,8.3,23.9,11.6,36.1c6.5,24.1,12,48.3,20.3,71.8
			c16.1,45.8,38,90.1,45,138.5c3.7,25.6,3.3,51.7,2.9,77.5c-0.2,13.1-0.5,26.2-0.3,39.2c0.1,12.2,0.1,24.9,2.4,36.9
			c2.1,10.7,7.8,20.7,18.2,24.8c4.6,1.8,9.9,2.1,14.6,0.3c5-2,8.7-5.7,11.9-10c7.4-9.8,13.7-20.7,20.2-31.1
			c6.8-10.9,13.4-22,19.8-33.1c3.1-5.4,6.2-10.9,9.2-16.4C1296,1554.1,1288.8,1549.9,1286.2,1554.6L1286.2,1554.6z"/>
	</g>
	<g>
		<path d="M969.7,1051.1c-8.5-10.8-15.5-23.1-20.4-35.9c-4.6-12.1-8-25-8.5-38c-0.5-11.5,1-23.6,6.4-34c2.6-5,6-9.4,10.3-13
			c4.8-4.1,10.5-6.9,15.6-10.5c5.5-3.8,10.3-8.5,13.2-14.6c2.8-5.9,4-12.4,4.3-18.9c0.3-6.4-0.2-12.9-0.4-19.3
			c-0.1-3.3-0.3-6.5-0.2-9.8c0-1.2,0-2.5,0.2-3.6c0.1-0.5,0.2-0.9,0.5-1.3c-0.4,0.6-0.4,0.2,0.7,0.2c5.8,0.1,11.9,1.9,17.3,3.7
			c5.7,2,11.2,4.7,16.3,7.9c10.1,6.4,18.8,15.2,24.9,25.5c7.1,12,10.6,25.8,19.5,36.7c7,8.6,16.5,15,26.2,20.2
			c19.4,10.4,42.1,17.4,56.6,34.9c8.5,10.2,13.3,22.8,19.8,34.3c5.9,10.5,13.4,19.5,23.1,26.7c17.3,12.8,38.9,18.4,59.4,23.6
			c20.5,5.3,41.8,10.1,59.7,21.8c9.3,6.1,17.2,14.1,22.6,23.8c6,10.7,8.9,22.9,8.7,35.1c-0.1,6-1.1,11.8-2.8,17.5
			c-1.5,5.1,6.5,7.3,8,2.2c7.7-25.3,0.8-54.3-17.4-73.5c-15.4-16.3-37.1-24.2-58.2-30.1c-21.1-5.9-43.3-9.8-62.8-19.7
			c-9.3-4.7-17.7-10.8-24.5-18.8c-8.7-10.3-13.7-23.2-20.3-34.9c-3.4-5.9-7.2-11.7-11.9-16.7c-4-4.2-8.6-7.9-13.4-11.2
			c-9.6-6.5-20.2-11.2-30.6-16.2c-10-4.8-20.3-9.8-28.8-17.1c-4.4-3.8-8.2-8-11.2-12.9c-3.9-6.3-6.5-13.3-9.6-20
			c-5.4-12.1-13.1-22.8-23.3-31.3c-9.9-8.3-21.6-14.5-34.1-17.6c-3.3-0.8-6.6-1.4-9.9-1.9c-3.5-0.4-7.1-0.6-9.9,1.9
			c-2.6,2.4-3,6.1-3.1,9.4c-0.1,3.3,0,6.5,0.1,9.8c0.5,12.2,2.6,26.4-3.8,37.5c-3.2,5.5-8.4,9.2-13.7,12.5
			c-5.6,3.5-11.3,7-15.9,11.8c-8.6,8.9-13.3,20.8-15.1,32.9c-3.9,27.1,4.7,55.6,18.3,78.9c3.6,6.2,7.7,12.2,12.2,17.8
			c1.4,1.8,4.4,1.5,5.9,0C971.4,1055.2,971.1,1052.9,969.7,1051.1L969.7,1051.1z"/>
	</g>
	<g>
		<path d="M1353.9,1218.8c9.5,18.2,20.1,39,14.1,60.1c-1.3,4.5-3.4,8.8-6.4,12.5c-3.3,4-7.4,7.3-11.3,10.6
			c-7.9,6.8-14.1,14.8-19.3,23.9c-5,8.8-9.1,18.1-14.2,26.8c-5.4,9.2-12,17.6-18.6,26c-6.6,8.4-13.3,16.8-18.9,26
			c-5.8,9.6-10.2,20.1-13.8,30.7c-4.2,12.1-7.4,24.4-10.9,36.7c-3.7,13.3-7.4,26.6-11.2,39.9c2.5-0.3,5.1-0.7,7.6-1
			c-10.6-24.8-12.8-52-13.3-78.6c-0.4-26.9,0.9-54-2.1-80.8c-5.8-51.8-29.6-99.2-59.5-141.3c-15-21.1-31.2-41.4-48.6-60.6
			c-17.5-19.4-37-37.3-59.9-50.1c-10.5-5.9-21.5-10.9-31.3-17.8c-9.9-6.9-17.5-16-22.1-27.2c-4.7-11.7-6.6-24.4-8.4-36.8
			c-2.1-14.9-4.1-29.7-6.1-44.6c-1.4-10.2-4.1-24.4,6.1-31.1c7.7-5.1,18.8-4.1,26.7,0c10.8,5.6,18.3,16,25.6,25.3
			c7.4,9.4,15.5,18.9,26.3,24.4c5.3,2.7,10.9,4.3,16.9,4.5c5.3,0.2,5.3-8.1,0-8.3c-12.5-0.4-22.5-9.1-30.4-18
			c-8.1-9.2-14.7-19.7-24-27.9c-8.5-7.4-18.9-12.4-30.4-11.7c-10.6,0.6-20.3,5.9-24.4,16c-2.4,6.1-2.4,12.8-1.8,19.2
			c0.8,7.4,1.9,14.7,3,22.1c1.9,14.2,3.6,28.4,6,42.5c2.1,12.7,5.2,25.4,11.7,36.6c6.2,10.7,15.5,18.8,25.9,25.3
			c10.7,6.7,22.2,11.8,32.9,18.4c11.2,6.8,21.4,15,31,23.9c19.5,18,36.5,38.8,52.8,59.7c32,41.2,60.2,87.4,70.6,139.1
			c10.8,53.7-2.3,109.9,12.6,163c1.8,6.5,4.1,12.8,6.8,19c1.5,3.4,6.7,2.1,7.6-1c6.5-23.2,12.5-46.7,19.8-69.7
			c3.4-10.9,7.5-21.6,13-31.6c5.3-9.5,11.9-18.2,18.6-26.8c6.8-8.7,13.8-17.3,19.6-26.7c5.4-8.8,9.6-18.3,14.6-27.3
			c5.1-9.3,11-17.4,19.1-24.3c8-6.9,15.2-13.6,18.9-23.8c8.7-24-3.1-48.5-14-69.5C1358.6,1209.9,1351.4,1214.1,1353.9,1218.8
			L1353.9,1218.8z"/>
	</g>
	<g>
		<path d="M1122.5,1018.6c16.2,14.3,22.3,36.7,39.7,50c9.6,7.3,21.3,11.1,32.6,14.8c13.2,4.2,26.4,8.4,39.6,12.6
			c10.6,3.4,21.9,6.6,29.7,15c6.6,7.1,9.6,16.7,11.8,25.9c2.3,10,3.7,20.3,6.7,30.1c3.5,11.2,9.6,21.1,16,30.9
			c6,9.2,12.3,18.5,15.2,29.3c2.4,8.9,2.9,19.3-1.7,27.6c-1.1,2-2.4,3.7-4.1,5.3c-3.8,3.8,2.1,9.6,5.9,5.9
			c7.6-7.6,10.5-18.3,9.9-28.8c-0.7-11.2-4.7-21.6-10.4-31.2c-6.1-10.5-13.7-20.2-19-31.2c-4.7-9.6-6.6-20.1-8.6-30.5
			c-2-10.2-4.2-20.7-9.2-29.9c-5.7-10.4-14.9-17-25.7-21.4c-5.8-2.4-11.9-4.1-17.9-6c-6.7-2.1-13.4-4.3-20.1-6.4
			c-12.2-3.9-25-7.1-36.5-12.8c-5.2-2.6-10-5.7-14.1-9.8c-3.8-3.7-6.9-7.9-9.9-12.3c-6.1-9.1-11.3-18.8-18.5-27.1
			c-1.8-2-3.7-4-5.7-5.8C1124.4,1009.2,1118.5,1015.1,1122.5,1018.6L1122.5,1018.6z"/>
	</g>
	<g>
		<path d="M1292.8,1330.8c-7.3,2.3-13.8-4.7-17.9-9.9c-4.3-5.5-7.8-11.7-10.4-18.2c-5.8-13.9-8.5-28.9-10.9-43.7
			c-2.5-15-4.7-30.2-9.2-44.7c-4.8-15.4-12.5-29.6-22.7-42.1c-10.5-12.8-23.6-23-38-31.1c-15.2-8.5-31.4-14.9-46.7-22.9
			c-27.9-14.7-52.5-35.8-71.2-61.2c-4.7-6.4-9-13-12.9-19.9c-2-3.5-4.3-7.2-4.8-11.2c-0.2-2.4,0.6-5.9,3.3-6.9c2.8-1,6.7,3,8.9,4.5
			c3.7,2.7,7.4,5.5,11.1,8.4c7.4,5.7,14.6,11.6,21.7,17.6c3.5,3,7,6,10.4,9c4,3.5,9.9-2.3,5.9-5.9c-14.7-13-30-25.3-45.8-37
			c-3.6-2.6-7.4-5.5-12.2-5c-4.2,0.4-7.8,3.2-9.8,7c-4.4,8.6,0.7,17.6,5,25.1c16.8,28.8,40.3,53.6,68.2,72
			c14.7,9.7,30.7,16.9,46.6,24.4c15.7,7.5,31.2,15.7,44,27.7c12,11.3,21.7,25.2,27.8,40.5c5.9,14.8,8.6,30.6,11.2,46.2
			c2.5,15.4,4.9,31.1,10.1,45.9c2.6,7.4,5.9,14.6,10.2,21.2c4.6,7,10.3,14.2,18.3,17.5c3.9,1.6,8.1,2,12.1,0.7
			C1300.1,1337.2,1297.9,1329.2,1292.8,1330.8L1292.8,1330.8z"/>
	</g>
	<g>
		<path d="M1307.2,1290.1c-0.2-1.1,0,0.4,0,0.6c0,0.3,0.1,0.7,0.1,1c0,0.8,0.1,1.6,0.1,2.4c0,0.8,0,1.6-0.1,2.4c0,0.3-0.1,0.7-0.1,1
			c-0.1,0.5-0.1,0.5,0-0.1c0,0.2-0.1,0.3-0.1,0.5c-0.2,1.5-0.6,3-1,4.5c-0.2,0.8-0.5,1.5-0.8,2.3c0,0.1-0.4,1.2-0.1,0.3
			c-0.2,0.4-0.4,0.8-0.6,1.2c-0.9,2-0.6,4.6,1.5,5.7c1.9,1,4.7,0.6,5.7-1.5c1.6-3.4,2.8-6.9,3.4-10.6c0.6-4,0.6-7.9,0.1-11.9
			c-0.1-1-1.1-2-1.9-2.5c-0.9-0.5-2.2-0.7-3.2-0.4c-1,0.3-2,0.9-2.5,1.9C1307.1,1288,1307.1,1289,1307.2,1290.1L1307.2,1290.1z"/>
	</g>
	<g>
		<path d="M1110.7,767.6c11.6,5.3,23.4,1.2,35.5,0.9c5.4-0.1,10.5,1,14.6,4.7c4.7,4.2,8,9.6,12.4,14.2c8.9,9.4,20.2,16.1,30.7,23.5
			c9.8,7,18.1,15.1,24.7,25.2c13.2,20.1,19.9,43.6,31.8,64.4c5.9,10.3,13.3,19.8,22.1,27.9c8.8,8,18.8,14.7,29.3,20.2
			c21.5,11.3,45,18.2,68.4,24.3c2.9,0.7,5.7,1.5,8.6,2.2c5.2,1.3,7.4-6.7,2.2-8c-23.1-5.8-46.4-11.9-68-22.1
			c-21.1-10-40.1-24-52.7-44c-12.7-20.2-19.4-43.4-31.5-64c-6.1-10.4-13.7-19.9-23.2-27.4c-10-8-21.3-14.3-31-22.6
			c-4.8-4.1-8.6-8.8-12.6-13.7c-4.1-5-8.7-9.4-15-11.4c-11.5-3.8-23.3,1.2-35,0.4c-2.4-0.1-4.9-0.6-7.2-1.7c-2-0.9-4.5-0.6-5.7,1.5
			C1108.2,763.7,1108.7,766.7,1110.7,767.6L1110.7,767.6z"/>
	</g>
	<g>
		<path d="M1607.8,1021.2c9.5,7.3,15.2,19.3,15.4,31.2c0.3,12.5-5.9,23.6-13.1,33.4c-7.8,10.5-17,20-24,31
			c-7.3,11.6-12.5,24.7-15,38.2c-3,15.5-2.8,31.5,0.8,46.8c1.2,5.2,9.2,3,8-2.2c-6.3-26.9-1.2-56,13.7-79.2
			c13.9-21.6,38.2-39.7,37.9-67.8c-0.2-15.2-7.6-29.4-19.6-38.6c-1.8-1.4-4.6-0.3-5.7,1.5C1605.1,1017.7,1606,1019.8,1607.8,1021.2
			L1607.8,1021.2z"/>
	</g>
	<g>
		<path d="M1570.1,1279.1c5.6,24.4-0.1,50.4-14.8,70.5c-3.9,5.3-8.3,10.3-12.3,15.5c-4.2,5.4-8,11-11.3,17
			c-2.6,4.8-5.6,9.3-9.9,12.6c-3.7,2.9-8,5.1-12.1,7.4c-9.5,5.2-19.4,10.9-23,21.8c-1.7,5.1,6.3,7.3,8,2.2
			c2.7-8.2,11.4-12.6,19-16.8c4.3-2.4,8.6-4.7,12.5-7.7c4.8-3.6,8.4-8,11.4-13.2c3.4-5.9,6.6-11.6,10.8-17c4.2-5.5,8.8-10.7,13-16.2
			c7.8-10.4,13.5-22.3,16.5-34.9c3.4-14.3,3.5-29.2,0.2-43.5C1576.9,1271.7,1568.9,1273.9,1570.1,1279.1L1570.1,1279.1z"/>
	</g>
	<g>
		<path d="M646.5,584.5c9.1-28.4,13.4-58.4,12.4-88.2c-0.2-7.4-0.6-14.9-1.8-22.3c-1.1-7-5.2-12.3-12.4-13.2
			c-3.3-0.4-6.6-0.1-9.9,0.1c-4,0.2-8,0.4-12,0.6c-7.9,0.4-15.7,0.8-23.6,1.3c-8,0.4-16,0.9-24,1.3c-7.5,0.4-15.2,1.3-22.6,0.8
			c-10.8-0.8-17-8.8-18.8-18.9c-4.4-24.7,20.3-42.4,33.7-59.7c8.1-10.5,15-23.2,14.2-36.9c-0.4-6.4-2.4-13.3-7.4-17.6
			c-4.7-4-10.9-5.6-16.9-4.9c-13.8,1.6-22.4,12.5-30.1,22.9c-8,11-16.2,21.8-25.4,31.8c-17.7,19.1-40.8,35.3-67.7,36.1
			c-25.4,0.7-47.4-15.7-62.7-34.7c-14.2-17.7-22.8-39.5-27-61.7c-4.7-24.6-3.4-49.7,1.9-74.1c1.6-7.2,3.5-14.4,5.7-21.4
			c1.6-5.1-6.4-7.3-8-2.2c-8,25.8-12.5,52.9-10.3,80c1.9,23.4,8.1,46.6,19.6,67.1c11.6,20.8,29.5,39.9,51.7,49.6
			c25.4,11,54.1,4.7,76.5-10.1c11.5-7.6,21.6-17.3,30.7-27.7c9-10.4,16.8-21.6,25.2-32.5c6.3-8.2,16.6-18.5,28.1-14
			c5.1,2,7.4,7.6,7.8,12.7c0.5,6.2-0.8,12.3-3.4,17.9c-5.5,12.1-14.9,21.5-23.7,31.2c-8.4,9.3-17,19.7-20,32.1
			c-2.5,10.2-1.4,22,4.5,30.9c3,4.5,7.1,8,12.1,10.1c6.9,2.8,14.4,2.4,21.6,2c15.7-0.8,31.4-1.7,47.2-2.5c8-0.4,16-0.9,24-1.3
			c3-0.2,6.3-0.7,9.2,0c2.6,0.7,3.4,2.7,4,5.1c0.7,3.2,0.9,6.6,1.1,9.8c0.3,3.6,0.5,7.2,0.6,10.9c0.3,7.4,0.2,14.8-0.1,22.2
			c-0.7,14.8-2.8,29.5-6.1,43.9c-1.6,7.1-3.6,14.1-5.8,21C636.9,587.4,644.9,589.5,646.5,584.5L646.5,584.5z"/>
	</g>
	<g>
		<path d="M169.9,160.4c3.5,13.9,6.2,27.9,11.9,41.1c5,11.6,12.1,22.2,18.5,33.1c6.3,10.9,11.4,22.1,13.3,34.6
			c1.8,12.1,1.5,24.5,3.4,36.7c1.8,11.6,6,22.7,14.4,31.1c7.2,7.2,16.5,11.8,25.9,15.4c18.6,7.2,40.3,10.8,54,26.7
			c8.1,9.4,12.7,21.3,19.6,31.5c6.6,9.9,16.3,19.4,28.3,22c3,0.6,6.1,0.9,9.1,0.6c2.2-0.2,4.1-1.8,4.1-4.2c0-2.1-1.9-4.4-4.2-4.1
			c-11.5,1.1-21.1-6.5-27.8-15.1c-7.5-9.6-12-21.3-19.1-31.2c-6.5-9-14.8-15.8-24.8-20.6c-9.2-4.4-19.1-7.4-28.7-10.6
			c-9-3.1-18.1-6.5-25.9-12.2c-8.4-6.2-13.5-15.3-15.8-25.5c-2.7-11.6-2.4-23.6-3.6-35.3c-0.6-6.2-1.6-12.4-3.4-18.4
			c-1.8-5.9-4.3-11.7-7.1-17.2c-5.7-11.2-12.9-21.5-18.7-32.6c-6.4-12-9.8-24.8-12.9-38c-0.8-3.3-1.6-6.7-2.4-10
			C176.6,153,168.6,155.2,169.9,160.4L169.9,160.4z"/>
	</g>
	<g>
		<path d="M174.5,137.9c-6.4-6-14.2-13.2-15.5-22.4c-1.2-8.6,4.6-15.6,10.7-20.9c3.4-2.9,7.1-5.5,10.8-7.9c3.9-2.6,8.4-5.7,13.3-5.8
			c9.3-0.3,14.7,9.2,17.5,16.8c1.8,4.9,3.2,10,5.1,14.8c1.8,4.5,4,8.8,6.5,13c4.9,8.1,11.2,15.5,18.4,21.7
			c7.5,6.4,16.3,12.3,25.8,15.2c5.2,1.6,10.9,2.1,16.2,0.7c5-1.4,8.9-4.9,13.6-6.7c9-3.5,18.9,1.8,24.7,8.7
			c7.2,8.6,9.5,20.5,11.9,31.2c1.1,5.2,9.1,3,8-2.2c-2.4-10.7-4.9-21.9-11.2-31.1c-5.7-8.4-14.6-14.7-24.8-15.8
			c-5.4-0.6-10.6,0.7-15.3,3.3c-4.7,2.6-8.7,5.4-14.3,5.2c-5.3-0.2-10.3-2.3-14.9-4.8c-4.2-2.3-8.2-4.9-11.9-7.9
			c-7.7-6.2-14.3-13.7-19.4-22.2c-2.4-4.1-4.6-8.4-6.2-12.8c-2-5.2-3.4-10.6-5.5-15.8c-4.1-9.7-12-19.4-23.5-19.5
			c-5.7,0-11,2.5-15.8,5.5c-4.3,2.7-8.5,5.6-12.4,8.7c-8.4,6.7-16.1,16-15.6,27.4c0.5,12.3,9.6,21.7,18,29.6
			C172.5,147.5,178.4,141.6,174.5,137.9L174.5,137.9z"/>
	</g>
	<g>
		<path d="M223.3,186.6c-2.2-7.4-4.5-14.9-6.7-22.3c0,0.7,0,1.5,0,2.2c0.5-1.8,2-2.8,3.9-3.1c3-0.5,5.7,0.3,8.2,1.7
			c2.8,1.6,5.4,5.6,7.3,8.6c2.5,3.8,4.9,7.8,8.2,11.1c6.4,6.4,15.2,9.4,24.1,10.5c4.3,0.5,8.5,0.4,12.7,0.4c3.2,0,7.6,0,9.7,2.9
			c2.1,2.9,1.6,7.3,1.6,10.7c-0.1,5,0.1,10,0.6,15c1,10.2,3.1,20.3,5.7,30.2c2.6,9.9,5.7,19.7,8.7,29.5c1.5,5,3,10,4.4,15.1
			c1.3,4.8,2.9,9.7,2.8,14.7c0,3.8-1.5,8.5-5.4,10.1c-4.1,1.7-9.5-1.4-13.1-3.3c-8.7-4.6-16.3-11.3-21.8-19.5
			c-3-4.4-10.1-0.3-7.2,4.2c6.1,9.1,14.2,16.7,23.9,22c4.8,2.6,10.3,5.4,15.9,5.3c5.7-0.1,10.5-3.4,13.3-8.3
			c5.9-10.5,0.7-23.8-2.5-34.4c-3.5-11.8-7.3-23.5-10.6-35.4c-3.1-11.4-5.6-22.9-6.4-34.7c-0.3-5.4,0.2-10.8-0.2-16.2
			c-0.4-5.5-2.4-10.9-7.5-13.7c-4.6-2.6-10-2.5-15.1-2.4c-4.8,0.1-9.6-0.2-14.3-1.3c-4.6-1.1-9.2-3.1-12.7-6.3
			c-3.8-3.5-6.2-8-9.1-12.2c-3.1-4.6-6.7-8.9-11.9-11c-4.2-1.7-9.3-2.2-13.6-0.6c-2.1,0.8-4,2-5.5,3.8c-0.8,1-1.4,2.1-1.9,3.3
			c-0.7,1.8-0.5,3.2,0,5c2.1,6.9,4.2,13.8,6.3,20.8C216.8,193.9,224.8,191.7,223.3,186.6L223.3,186.6z"/>
	</g>
	<g>
		<path d="M278.7,272.5c-5.7-2.4-9.2-7.3-12.1-12.7c-3.4-6.2-6.4-12.8-8.9-19.4c-1.4-3.6-2.8-7.4-3.6-11.2c-0.3-1.3-0.4-1.8,0.7-2.5
			c0.9-0.6,2.1-1,3.1-1.2c4-0.6,8.9,1.5,11.1,5c1.7,2.6,1.6,5.7,1.4,8.9c-0.3,4.6-0.3,8.7,1.5,13c0.9,2.1,3.9,2.5,5.7,1.5
			c2.1-1.2,2.4-3.6,1.5-5.7c-1.5-3.5-0.3-8-0.3-11.6c0-3.9-0.8-7.7-3.1-10.9c-3.9-5.6-10.8-9.1-17.7-8.6c-3.8,0.3-7.8,1.8-10.4,4.8
			c-3.4,4.1-1.8,9.3-0.4,13.9c2.6,8.6,6.5,16.8,10.5,24.8c3.7,7.6,8.7,15.5,16.8,19c2.1,0.9,4.4,0.6,5.7-1.5
			C281.2,276.4,280.8,273.4,278.7,272.5L278.7,272.5z"/>
	</g>
	<g>
		<path d="M673.9,293.7c-1.1,0.6-2.1,0.6-3.6,0.1c-1.2-0.4-2.8-1.6-3.6-2.6c-2.1-2.7-2-5.4,0.9-7.7c2.6-2,7.1-2.4,10.8-2.5
			c4.8-0.2,9.6,0.1,14.4-0.4c11.7-1.3,22.8-5.2,34.1-8.1c10.2-2.7,21-4.5,31.3-1.1c10,3.3,17.9,10.9,26,17.2c4,3.1,8.2,6,12.8,8.2
			c5.6,2.7,11.6,4.2,17.7,5.5c6,1.2,12.1,2.3,18,4.2c5.1,1.7,10,4.1,14.6,6.9c9.9,6,18.4,14,26.7,21.9c2.1,2,4.3,3.9,5.9,6.3
			c1.1,1.7,2.6,3.9,2.3,6c-0.2,1.5-2.1,2.2-3.8,2.5c-3.5,0.5-7.1,0.3-10.6,0.4c-15.1,0.2-30.2-1-45.1-3.4c0.6,2.3,1.2,4.6,1.8,6.9
			c4.1-3.7,8.6-8,9.8-13.7c1-4.8-0.1-10.4-4.1-13.6c-4.6-3.7-10.3-2.2-15.7-2.9c-3.2-0.4-7.2-1.7-10.3-3.2
			c-15.2-7.4-26.5-21.2-42.7-27c-4.6-1.7-9.5-2.4-14.3-2.2c-2.7,0.1-6.6,1-9.1-0.6c-0.6-0.4-1.1-1-1.4-1.5c0,0.1-0.4-1.4-0.2-0.8
			c0.1,0.3,0.3-0.4,0-0.1c2.2-2.5,1.1-5.8-1.8-6.9c-5.4-2.1-11.5-1.4-16.5,1.5c-4.6,2.7-0.4,9.9,4.2,7.2c3.2-1.9,6.6-2,10.1-0.7
			c-0.6-2.3-1.2-4.6-1.8-6.9c-3.8,4.3-2.7,10.6,1.6,14.2c4.8,4.1,11.1,2.9,16.9,2.9c7.7,0.1,14.7,3.6,21.3,7.9
			c14,9.2,26.5,22.6,44,24.6c2.8,0.3,5.7-0.2,8.5,0.2c1.9,0.3,2.8,1.4,3.2,3.1c1.1,5.2-4.1,9.5-7.6,12.7c-2.2,2-1.2,6.4,1.8,6.9
			c14.8,2.4,29.8,3.7,44.9,3.7c3.6,0,7.3-0.1,10.9-0.2c3-0.1,6.2-0.5,8.9-2c6-3.5,6.3-10.4,3.6-16.1c-2.6-5.6-7.5-9.7-11.9-13.9
			c-4.6-4.3-9.3-8.6-14.2-12.5c-10.4-8.2-21.8-14.5-34.8-17.5c-6.6-1.5-13.3-2.5-19.8-4.4c-5.8-1.7-10.9-4.4-15.8-7.9
			c-9.7-6.8-18.1-15.3-29.2-19.9c-24.5-10-48.7,6.6-73,8.2c-9.6,0.6-22.3-1.8-29.5,6.3c-3.8,4.3-4.5,9.9-2,15
			c2.2,4.5,6.9,7.9,11.9,8.5c2.7,0.3,5.2-0.2,7.6-1.4C682.8,298.4,678.6,291.2,673.9,293.7L673.9,293.7z"/>
	</g>
	<g>
		<path d="M838.7,328.3c5.3,4.2,11,7.4,17.3,9.9c0.9,0.4,2.4,0.1,3.2-0.4c0.9-0.5,1.7-1.5,1.9-2.5c0.2-1.1,0.2-2.3-0.4-3.2
			c-0.6-1-1.4-1.5-2.5-1.9c-0.3-0.1-0.7-0.3-1-0.4c-0.4-0.2-0.3-0.1,0.2,0.1c-0.2-0.1-0.3-0.1-0.5-0.2c-0.7-0.3-1.3-0.6-2-0.9
			c-1.3-0.6-2.5-1.3-3.8-2s-2.4-1.5-3.6-2.2c-0.6-0.4-1.2-0.8-1.8-1.3c-0.3-0.2-0.6-0.4-0.9-0.7c-0.1-0.1-0.3-0.2-0.4-0.3
			c0.5,0.4,0.5,0.4,0.2,0.1c-0.9-0.7-1.7-1.2-2.9-1.2c-1,0-2.2,0.5-2.9,1.2C837.3,323.9,836.9,326.9,838.7,328.3L838.7,328.3z"/>
	</g>
	<g>
		<path d="M932.5,344.9c-5.3-1.2-11-2.4-16.3-0.4c-4.2,1.6-7.7,5.4-8.5,9.9c-0.8,4.6,1.4,8.4,5.1,11.1c1.3,1,2.7,1.8,4.1,2.6
			c0.7,0.4,1.4,0.8,2.1,1.3c0.4,0.2,0.6,0.4,1.2,1c0,0,0.1,0.1,0.1,0.1c-0.3-0.3-0.3-0.3,0,0.1c0-0.1-0.1-0.2-0.1-0.3
			c0.1,0.5,0.1,0.5,0.1,0c-0.4,0.6,0.6-0.1-0.2,0.7c-1.3,1.3-3.6,1-5.2,0.9c-5-0.4-9.4-0.4-14,1.6c-4.2,1.8-7.7,4.8-10.4,8.5
			c-2.7,3.7-4.8,9.1-3.8,13.8c1.2,5.4,6.6,7.3,11.2,9c4.9,1.8,10.4,2.9,15.4,0.9c4-1.6,6.9-4.4,10.3-7c2.6-2.1,5.4-3.8,8.7-2.3
			c3.5,1.6,6.1,5.1,8.7,7.8c3.3,3.5,7.7,6.5,12.6,7.2c5.1,0.7,9.6-1.7,12.2-6c1.7-2.8,2.5-7.1,5.6-8.6c4.3-2,9.7,0.3,13.7,1.7
			c5.7,2,11.5,3.4,17.4,1.5c5.2-1.7,9.5-5.2,14.5-7.4c3.2-1.4,7.9-2.4,10.6,0.3c1.7,1.7,4.2,1.5,5.9,0c5.7-4.9,2-13-2.6-17.1
			c-5.5-4.9-12.9-8.2-19.8-10.5c-7-2.3-14.6-3.4-22-3.3c-3.1,0.1-6.9,0.9-9.9-0.2c-2.2-0.8-3.6-2.6-5.2-4.4c-4-4.7-7.8-9.8-14.5-10
			c-5.3-0.2-5.3,8.1,0,8.3c1.3,0,2.4,0.7,3.7,1.9c1.6,1.5,2.9,3.3,4.3,4.9c3.7,4.4,7.8,7.6,13.8,8c3.2,0.2,6.4-0.2,9.6-0.2
			c3.2,0,6.3,0.3,9.4,0.8c6.3,1.1,12.3,3.2,17.9,6.2c2.8,1.5,5.9,3.1,8,5.5c0.8,0.9,1.4,1.9,1.8,3c0.1,0.4,0.2,0.6,0.1,0.8
			c0.1-0.3-0.2,0.1-0.5,0.4c2,0,3.9,0,5.9,0c-6.9-7-17.3-3.8-24.7,0.5c-3.5,2-7.1,4.6-11.3,5.1c-4.9,0.5-9.8-2.1-14.4-3.5
			c-4.1-1.2-8.7-1.8-12.9-0.6c-4.4,1.2-7.4,4.2-9.4,8.2c-1.3,2.5-2.4,7-5.9,6.7c-3.8-0.3-6.9-3.6-9.4-6.3c-2.8-3-5.8-6.2-9.6-8
			c-4.2-1.9-8.7-1.9-12.9,0.1c-3.3,1.6-6,4.3-8.9,6.5c-3.3,2.5-6.4,3.4-10.5,2.3c-2.2-0.6-4.4-1.4-6.5-2.4c-1.7-0.8-2.6-1.1-2.4-3.1
			c0.5-3.6,2.8-6.9,5.6-9.1c2.6-2.2,6-3.5,9.4-3.6c4.9-0.1,9.8,1.4,14.3-1.5c4.1-2.6,5.9-7.9,3.3-12.2c-2-3.3-5.6-4.8-8.7-6.7
			c-1.2-0.7-2.2-1.4-2.6-2.4c-0.4-1,0.3-2.3,1.2-3.3c3.2-3.5,9.3-1.7,13.2-0.8C935.5,354.1,937.8,346.1,932.5,344.9L932.5,344.9z"/>
	</g>
	<g>
		<path d="M1086.4,379.5c-4.6-0.6-9.3-1-14-1c-4.3,0-9,0.1-13.1,1.2c-8.3,2.3-10.2,11.3-9.1,18.9c1.3,8.5,9.3,11.9,17.1,9.8
			c3.8-1.1,7.1-3.4,10.7-4.9c3.7-1.5,7.4-1.1,11.1,0.1c4.2,1.4,8.8,1.5,11.4-2.8c2-3.3,1.9-7.3,1.3-11c-0.3-2.2-3.1-3.4-5.1-2.9
			c-2.4,0.7-3.2,2.9-2.9,5.1c0.2,1.3,0,3.4-0.4,4.4c0,0,0.3-0.5,0,0c-0.3,0.4,0-0.1,0.1-0.1c0.4,0.1-0.6-0.3-0.4-0.2
			c-1.2-0.8-3.3-1.1-4.7-1.4c-3.3-0.7-6.7-0.9-10.1-0.1c-3.1,0.6-5.9,2.2-8.6,3.6c-2.6,1.4-9.3,4.8-11.1,0.5c-0.8-2-0.7-4.7-0.4-6.8
			c0.3-2.1,1-3.7,3.1-4.3c3.4-1,7.4-0.9,10.9-0.9c3.9,0,7.9,0.2,11.8,0.7c2.2,0.3,4.5-0.5,5.1-2.9
			C1089.8,382.7,1088.6,379.8,1086.4,379.5L1086.4,379.5z"/>
	</g>
	<g>
		<path d="M842.7,391.4c-6.8-6.5-15.8-10.8-25.3-11.2c-9.8-0.4-18.9,4.8-23,13.9c-2,4.4-1.9,9.1,1.4,12.7c2.7,3,6.7,4.4,10.6,4.8
			c4.9,0.4,9.7-1.5,14.5-1.2c4.5,0.3,8.3,3.4,12.2,5.3c4.6,2.2,10,3.6,14.9,1.7c5-1.9,8.5-7.1,7.9-12.6c-0.3-2.2-1.7-4.1-4.2-4.1
			c-2,0-4.4,1.9-4.1,4.2c0.3,2.5-0.8,4.7-3.5,5.1c-2.9,0.4-5.9-0.9-8.4-2.2c-3.4-1.8-6.8-3.9-10.5-4.9c-4.1-1.1-8.2-0.6-12.3,0
			c-3.1,0.5-6.3,1-9.2-0.2c-1.9-0.8-2.9-1.9-2.5-3.7c0.6-2.8,3.1-5.8,5.4-7.5c2.6-2,5.9-2.8,9.1-2.8c7.8-0.1,15.4,3.5,20.9,8.8
			C840.7,401,846.6,395.1,842.7,391.4L842.7,391.4z"/>
	</g>
</g>
</svg>
